G04 #@! TF.GenerationSoftware,KiCad,Pcbnew,(5.1.5)-3*
G04 #@! TF.CreationDate,2020-03-15T20:30:40+01:00*
G04 #@! TF.ProjectId,TFG_PCB,5446475f-5043-4422-9e6b-696361645f70,rev?*
G04 #@! TF.SameCoordinates,Original*
G04 #@! TF.FileFunction,Legend,Bot*
G04 #@! TF.FilePolarity,Positive*
%FSLAX46Y46*%
G04 Gerber Fmt 4.6, Leading zero omitted, Abs format (unit mm)*
G04 Created by KiCad (PCBNEW (5.1.5)-3) date 2020-03-15 20:30:40*
%MOMM*%
%LPD*%
G04 APERTURE LIST*
%ADD10C,0.120000*%
%ADD11C,0.150000*%
G04 APERTURE END LIST*
D10*
X81541252Y-153110000D02*
X81018748Y-153110000D01*
X81541252Y-151690000D02*
X81018748Y-151690000D01*
X81541252Y-154230000D02*
X81018748Y-154230000D01*
X81541252Y-155650000D02*
X81018748Y-155650000D01*
X81541252Y-156770000D02*
X81018748Y-156770000D01*
X81541252Y-158190000D02*
X81018748Y-158190000D01*
X80570000Y-52277559D02*
X80570000Y-51755055D01*
X81990000Y-52277559D02*
X81990000Y-51755055D01*
X79450000Y-52310473D02*
X79450000Y-51787969D01*
X78030000Y-52310473D02*
X78030000Y-51787969D01*
X75490000Y-52272494D02*
X75490000Y-51749990D01*
X76910000Y-52272494D02*
X76910000Y-51749990D01*
D11*
X81446666Y-151202380D02*
X81780000Y-150726190D01*
X82018095Y-151202380D02*
X82018095Y-150202380D01*
X81637142Y-150202380D01*
X81541904Y-150250000D01*
X81494285Y-150297619D01*
X81446666Y-150392857D01*
X81446666Y-150535714D01*
X81494285Y-150630952D01*
X81541904Y-150678571D01*
X81637142Y-150726190D01*
X82018095Y-150726190D01*
X81113333Y-150202380D02*
X80494285Y-150202380D01*
X80827619Y-150583333D01*
X80684761Y-150583333D01*
X80589523Y-150630952D01*
X80541904Y-150678571D01*
X80494285Y-150773809D01*
X80494285Y-151011904D01*
X80541904Y-151107142D01*
X80589523Y-151154761D01*
X80684761Y-151202380D01*
X80970476Y-151202380D01*
X81065714Y-151154761D01*
X81113333Y-151107142D01*
X81446666Y-153742380D02*
X81780000Y-153266190D01*
X82018095Y-153742380D02*
X82018095Y-152742380D01*
X81637142Y-152742380D01*
X81541904Y-152790000D01*
X81494285Y-152837619D01*
X81446666Y-152932857D01*
X81446666Y-153075714D01*
X81494285Y-153170952D01*
X81541904Y-153218571D01*
X81637142Y-153266190D01*
X82018095Y-153266190D01*
X80589523Y-153075714D02*
X80589523Y-153742380D01*
X80827619Y-152694761D02*
X81065714Y-153409047D01*
X80446666Y-153409047D01*
X81446666Y-156282380D02*
X81780000Y-155806190D01*
X82018095Y-156282380D02*
X82018095Y-155282380D01*
X81637142Y-155282380D01*
X81541904Y-155330000D01*
X81494285Y-155377619D01*
X81446666Y-155472857D01*
X81446666Y-155615714D01*
X81494285Y-155710952D01*
X81541904Y-155758571D01*
X81637142Y-155806190D01*
X82018095Y-155806190D01*
X80541904Y-155282380D02*
X81018095Y-155282380D01*
X81065714Y-155758571D01*
X81018095Y-155710952D01*
X80922857Y-155663333D01*
X80684761Y-155663333D01*
X80589523Y-155710952D01*
X80541904Y-155758571D01*
X80494285Y-155853809D01*
X80494285Y-156091904D01*
X80541904Y-156187142D01*
X80589523Y-156234761D01*
X80684761Y-156282380D01*
X80922857Y-156282380D01*
X81018095Y-156234761D01*
X81065714Y-156187142D01*
X83382380Y-51373449D02*
X82906190Y-51040116D01*
X83382380Y-50802021D02*
X82382380Y-50802021D01*
X82382380Y-51182973D01*
X82430000Y-51278211D01*
X82477619Y-51325830D01*
X82572857Y-51373449D01*
X82715714Y-51373449D01*
X82810952Y-51325830D01*
X82858571Y-51278211D01*
X82906190Y-51182973D01*
X82906190Y-50802021D01*
X82382380Y-51706783D02*
X82382380Y-52325830D01*
X82763333Y-51992497D01*
X82763333Y-52135354D01*
X82810952Y-52230592D01*
X82858571Y-52278211D01*
X82953809Y-52325830D01*
X83191904Y-52325830D01*
X83287142Y-52278211D01*
X83334761Y-52230592D01*
X83382380Y-52135354D01*
X83382380Y-51849640D01*
X83334761Y-51754402D01*
X83287142Y-51706783D01*
X83382380Y-52802021D02*
X83382380Y-52992497D01*
X83334761Y-53087735D01*
X83287142Y-53135354D01*
X83144285Y-53230592D01*
X82953809Y-53278211D01*
X82572857Y-53278211D01*
X82477619Y-53230592D01*
X82430000Y-53182973D01*
X82382380Y-53087735D01*
X82382380Y-52897259D01*
X82430000Y-52802021D01*
X82477619Y-52754402D01*
X82572857Y-52706783D01*
X82810952Y-52706783D01*
X82906190Y-52754402D01*
X82953809Y-52802021D01*
X83001428Y-52897259D01*
X83001428Y-53087735D01*
X82953809Y-53182973D01*
X82906190Y-53230592D01*
X82810952Y-53278211D01*
X80842380Y-51406363D02*
X80366190Y-51073030D01*
X80842380Y-50834935D02*
X79842380Y-50834935D01*
X79842380Y-51215887D01*
X79890000Y-51311125D01*
X79937619Y-51358744D01*
X80032857Y-51406363D01*
X80175714Y-51406363D01*
X80270952Y-51358744D01*
X80318571Y-51311125D01*
X80366190Y-51215887D01*
X80366190Y-50834935D01*
X80175714Y-52263506D02*
X80842380Y-52263506D01*
X79794761Y-52025411D02*
X80509047Y-51787316D01*
X80509047Y-52406363D01*
X80842380Y-53311125D02*
X80842380Y-52739697D01*
X80842380Y-53025411D02*
X79842380Y-53025411D01*
X79985238Y-52930173D01*
X80080476Y-52834935D01*
X80128095Y-52739697D01*
X78302380Y-51368384D02*
X77826190Y-51035051D01*
X78302380Y-50796956D02*
X77302380Y-50796956D01*
X77302380Y-51177908D01*
X77350000Y-51273146D01*
X77397619Y-51320765D01*
X77492857Y-51368384D01*
X77635714Y-51368384D01*
X77730952Y-51320765D01*
X77778571Y-51273146D01*
X77826190Y-51177908D01*
X77826190Y-50796956D01*
X77635714Y-52225527D02*
X78302380Y-52225527D01*
X77254761Y-51987432D02*
X77969047Y-51749337D01*
X77969047Y-52368384D01*
X77302380Y-52654099D02*
X77302380Y-53273146D01*
X77683333Y-52939813D01*
X77683333Y-53082670D01*
X77730952Y-53177908D01*
X77778571Y-53225527D01*
X77873809Y-53273146D01*
X78111904Y-53273146D01*
X78207142Y-53225527D01*
X78254761Y-53177908D01*
X78302380Y-53082670D01*
X78302380Y-52796956D01*
X78254761Y-52701718D01*
X78207142Y-52654099D01*
M02*
