M48
; DRILL file {KiCad (5.1.5)-3} date 03/15/20 20:29:27
; FORMAT={-:-/ absolute / inch / decimal}
; #@! TF.CreationDate,2020-03-15T20:29:27+01:00
; #@! TF.GenerationSoftware,Kicad,Pcbnew,(5.1.5)-3
; #@! TF.FileFunction,Plated,1,2,PTH
FMAT,2
INCH
T1C0.0157
T2C0.0276
T3C0.0394
T4C0.0433
T5C0.0787
%
G90
G05
T1
X1.5059Y-3.3941
X1.6Y-2.7
X1.6Y-2.9
X1.7Y-1.4
X1.7Y-2.7
X1.7Y-2.8
X1.9Y-1.4
X1.9Y-2.0
X1.989Y-2.011
X2.0Y-2.7
X2.0Y-3.3
X2.0Y-5.7346
X2.0346Y-5.1346
X2.0384Y-3.3534
X2.0838Y-2.2165
X2.1Y-1.4
X2.1Y-2.7
X2.1Y-2.8
X2.1654Y-5.1346
X2.1894Y-2.7106
X2.2Y-2.9
X2.22Y-3.38
X2.2346Y-5.1346
X2.2346Y-5.1346
X2.3Y-2.4
X2.4Y-2.2
X2.4Y-3.1
X2.5Y-3.5
X2.545Y-3.475
X2.5883Y-4.4037
X2.64Y-2.04
X2.64Y-2.2155
X2.6417Y-2.86
X2.68Y-2.215
X2.682Y-4.618
X2.7238Y-3.1045
X2.76Y-2.365
X2.765Y-2.15
X2.7692Y-3.4045
X2.7917Y-4.4
X2.8352Y-3.9948
X2.845Y-1.9925
X2.885Y-2.235
X2.9Y-2.1
X2.9362Y-4.7638
X2.9362Y-4.8638
X2.9362Y-4.9638
X2.9362Y-5.0638
X2.965Y-2.16
X2.995Y-2.3125
X3.0275Y-3.4175
X3.045Y-2.3125
X3.055Y-3.445
X3.055Y-3.89
X3.055Y-3.93
X3.055Y-3.965
X3.08Y-2.59
X3.0825Y-3.4725
X3.095Y-2.335
X3.1056Y-2.2002
X3.1198Y-2.5448
X3.13Y-4.22
X3.145Y-2.31
X3.2Y-2.2
X3.2253Y-2.5147
X3.295Y-2.22
X3.295Y-2.42
X3.3Y-4.6181
X3.3Y-4.9
X3.3185Y-3.4961
X3.335Y-2.18
X3.34Y-2.62
X3.3415Y-4.0585
X3.345Y-2.305
X3.365Y-2.48
X3.37Y-2.545
X3.385Y-2.135
X3.4Y-4.8
X3.411Y-4.711
X3.4415Y-4.0585
X3.495Y-5.26
X3.5415Y-4.0585
X3.62Y-2.68
X3.6415Y-4.0585
X3.685Y-1.99
X3.7Y-2.4
X3.7Y-2.6
X3.75Y-1.92
X3.805Y-1.855
X3.8957Y-2.7
X3.9Y-2.325
X3.95Y-2.325
X4.0Y-2.325
X4.0Y-3.4
X4.05Y-2.325
X4.077Y-5.023
X4.077Y-5.0994
X4.1Y-2.325
X4.1Y-2.7
X4.1Y-4.4
X4.15Y-2.325
X4.1839Y-4.6161
X4.2014Y-3.408
X4.275Y-3.175
X4.3Y-2.6
X4.3Y-2.7
X4.31Y-3.175
X4.355Y-2.69
X4.355Y-2.73
X4.4059Y-5.6598
X4.6Y-5.0
X4.6668Y-5.4682
X4.7Y-3.6
X4.7Y-4.9
X4.8065Y-5.5885
X4.9Y-6.3
T2
X1.5Y-3.3
X1.6Y-3.4
X1.7Y-3.3
X2.2Y-3.3
X2.3Y-3.4
X2.4Y-3.3
X4.7Y-3.3
X4.8Y-3.4
X4.9Y-3.3
X3.6Y-3.3
X3.7Y-3.4
X3.8Y-3.3
T3
X1.5523Y-5.0184
X1.5523Y-5.1184
X1.5523Y-5.2184
X1.5523Y-5.3184
X4.8Y-1.1
X4.9Y-1.1
X4.8606Y-5.0072
X4.8606Y-5.1072
X4.8606Y-5.2072
X4.8606Y-5.3072
X1.6Y-6.7
X1.7Y-6.7
X3.4Y-1.1
X3.5Y-1.1
X3.6Y-1.1
X3.7Y-1.1
X4.7Y-6.7
X4.8Y-6.7
X4.8606Y-5.8072
X4.8606Y-5.9072
X4.8606Y-6.0072
X4.8606Y-6.1072
X1.5Y-1.1
X1.6Y-1.1
X2.2573Y-1.6374
X2.2573Y-1.7374
X2.3573Y-1.6374
X2.3573Y-1.7374
X2.4573Y-1.6374
X2.4573Y-1.7374
X2.5573Y-1.6374
X2.5573Y-1.7374
X2.6573Y-1.6374
X2.6573Y-1.7374
X2.7573Y-1.6374
X2.7573Y-1.7374
X2.8573Y-1.6374
X2.8573Y-1.7374
X2.9573Y-1.6374
X2.9573Y-1.7374
X3.0573Y-1.6374
X3.0573Y-1.7374
X3.1573Y-1.6374
X3.1573Y-1.7374
X3.2573Y-1.6374
X3.2573Y-1.7374
X3.3573Y-1.6374
X3.3573Y-1.7374
X3.4573Y-1.6374
X3.4573Y-1.7374
X3.5573Y-1.6374
X3.5573Y-1.7374
X3.6573Y-1.6374
X3.6573Y-1.7374
X3.7573Y-1.6374
X3.7573Y-1.7374
X3.8573Y-1.6374
X3.8573Y-1.7374
X3.9573Y-1.6374
X3.9573Y-1.7374
X4.0573Y-1.6374
X4.0573Y-1.7374
X4.1573Y-1.6374
X4.1573Y-1.7374
X1.5523Y-5.8184
X1.5523Y-5.9184
X1.5523Y-6.0184
X1.5523Y-6.1184
X4.2Y-1.1
X4.3Y-1.1
X4.4Y-1.1
X4.5Y-1.1
X4.6Y-1.1
X2.7Y-3.7
X2.8969Y-3.7
X3.4Y-1.3
X3.5Y-1.3
X3.6Y-1.3
X3.7Y-1.3
X1.8Y-1.1
X1.9Y-1.1
X2.0Y-1.1
X2.1Y-1.1
X2.2Y-1.1
X4.1442Y-3.7017
X4.3411Y-3.7017
T4
X4.6Y-4.1
X4.7Y-4.1
X4.8Y-4.1
T5
X4.6026Y-3.8
X4.8526Y-3.8
X4.3Y-6.3
X4.55Y-6.3
X1.85Y-6.3
X2.1Y-6.3
X4.6069Y-4.7556
X4.8569Y-4.7556
X3.4Y-5.55
X3.4Y-5.8
X3.0Y-5.55
X3.0Y-5.8
X2.5Y-6.3
X2.75Y-6.3
X3.65Y-6.3
X3.9Y-6.3
X4.6075Y-4.4003
X4.8575Y-4.4003
T0
M30
