G04 #@! TF.GenerationSoftware,KiCad,Pcbnew,(5.1.5)-3*
G04 #@! TF.CreationDate,2020-03-15T20:30:40+01:00*
G04 #@! TF.ProjectId,TFG_PCB,5446475f-5043-4422-9e6b-696361645f70,rev?*
G04 #@! TF.SameCoordinates,Original*
G04 #@! TF.FileFunction,Paste,Bot*
G04 #@! TF.FilePolarity,Positive*
%FSLAX46Y46*%
G04 Gerber Fmt 4.6, Leading zero omitted, Abs format (unit mm)*
G04 Created by KiCad (PCBNEW (5.1.5)-3) date 2020-03-15 20:30:40*
%MOMM*%
%LPD*%
G04 APERTURE LIST*
%ADD10C,0.100000*%
G04 APERTURE END LIST*
D10*
G36*
X80604505Y-151701204D02*
G01*
X80628773Y-151704804D01*
X80652572Y-151710765D01*
X80675671Y-151719030D01*
X80697850Y-151729520D01*
X80718893Y-151742132D01*
X80738599Y-151756747D01*
X80756777Y-151773223D01*
X80773253Y-151791401D01*
X80787868Y-151811107D01*
X80800480Y-151832150D01*
X80810970Y-151854329D01*
X80819235Y-151877428D01*
X80825196Y-151901227D01*
X80828796Y-151925495D01*
X80830000Y-151949999D01*
X80830000Y-152850001D01*
X80828796Y-152874505D01*
X80825196Y-152898773D01*
X80819235Y-152922572D01*
X80810970Y-152945671D01*
X80800480Y-152967850D01*
X80787868Y-152988893D01*
X80773253Y-153008599D01*
X80756777Y-153026777D01*
X80738599Y-153043253D01*
X80718893Y-153057868D01*
X80697850Y-153070480D01*
X80675671Y-153080970D01*
X80652572Y-153089235D01*
X80628773Y-153095196D01*
X80604505Y-153098796D01*
X80580001Y-153100000D01*
X79929999Y-153100000D01*
X79905495Y-153098796D01*
X79881227Y-153095196D01*
X79857428Y-153089235D01*
X79834329Y-153080970D01*
X79812150Y-153070480D01*
X79791107Y-153057868D01*
X79771401Y-153043253D01*
X79753223Y-153026777D01*
X79736747Y-153008599D01*
X79722132Y-152988893D01*
X79709520Y-152967850D01*
X79699030Y-152945671D01*
X79690765Y-152922572D01*
X79684804Y-152898773D01*
X79681204Y-152874505D01*
X79680000Y-152850001D01*
X79680000Y-151949999D01*
X79681204Y-151925495D01*
X79684804Y-151901227D01*
X79690765Y-151877428D01*
X79699030Y-151854329D01*
X79709520Y-151832150D01*
X79722132Y-151811107D01*
X79736747Y-151791401D01*
X79753223Y-151773223D01*
X79771401Y-151756747D01*
X79791107Y-151742132D01*
X79812150Y-151729520D01*
X79834329Y-151719030D01*
X79857428Y-151710765D01*
X79881227Y-151704804D01*
X79905495Y-151701204D01*
X79929999Y-151700000D01*
X80580001Y-151700000D01*
X80604505Y-151701204D01*
G37*
G36*
X82654505Y-151701204D02*
G01*
X82678773Y-151704804D01*
X82702572Y-151710765D01*
X82725671Y-151719030D01*
X82747850Y-151729520D01*
X82768893Y-151742132D01*
X82788599Y-151756747D01*
X82806777Y-151773223D01*
X82823253Y-151791401D01*
X82837868Y-151811107D01*
X82850480Y-151832150D01*
X82860970Y-151854329D01*
X82869235Y-151877428D01*
X82875196Y-151901227D01*
X82878796Y-151925495D01*
X82880000Y-151949999D01*
X82880000Y-152850001D01*
X82878796Y-152874505D01*
X82875196Y-152898773D01*
X82869235Y-152922572D01*
X82860970Y-152945671D01*
X82850480Y-152967850D01*
X82837868Y-152988893D01*
X82823253Y-153008599D01*
X82806777Y-153026777D01*
X82788599Y-153043253D01*
X82768893Y-153057868D01*
X82747850Y-153070480D01*
X82725671Y-153080970D01*
X82702572Y-153089235D01*
X82678773Y-153095196D01*
X82654505Y-153098796D01*
X82630001Y-153100000D01*
X81979999Y-153100000D01*
X81955495Y-153098796D01*
X81931227Y-153095196D01*
X81907428Y-153089235D01*
X81884329Y-153080970D01*
X81862150Y-153070480D01*
X81841107Y-153057868D01*
X81821401Y-153043253D01*
X81803223Y-153026777D01*
X81786747Y-153008599D01*
X81772132Y-152988893D01*
X81759520Y-152967850D01*
X81749030Y-152945671D01*
X81740765Y-152922572D01*
X81734804Y-152898773D01*
X81731204Y-152874505D01*
X81730000Y-152850001D01*
X81730000Y-151949999D01*
X81731204Y-151925495D01*
X81734804Y-151901227D01*
X81740765Y-151877428D01*
X81749030Y-151854329D01*
X81759520Y-151832150D01*
X81772132Y-151811107D01*
X81786747Y-151791401D01*
X81803223Y-151773223D01*
X81821401Y-151756747D01*
X81841107Y-151742132D01*
X81862150Y-151729520D01*
X81884329Y-151719030D01*
X81907428Y-151710765D01*
X81931227Y-151704804D01*
X81955495Y-151701204D01*
X81979999Y-151700000D01*
X82630001Y-151700000D01*
X82654505Y-151701204D01*
G37*
G36*
X82654505Y-154241204D02*
G01*
X82678773Y-154244804D01*
X82702572Y-154250765D01*
X82725671Y-154259030D01*
X82747850Y-154269520D01*
X82768893Y-154282132D01*
X82788599Y-154296747D01*
X82806777Y-154313223D01*
X82823253Y-154331401D01*
X82837868Y-154351107D01*
X82850480Y-154372150D01*
X82860970Y-154394329D01*
X82869235Y-154417428D01*
X82875196Y-154441227D01*
X82878796Y-154465495D01*
X82880000Y-154489999D01*
X82880000Y-155390001D01*
X82878796Y-155414505D01*
X82875196Y-155438773D01*
X82869235Y-155462572D01*
X82860970Y-155485671D01*
X82850480Y-155507850D01*
X82837868Y-155528893D01*
X82823253Y-155548599D01*
X82806777Y-155566777D01*
X82788599Y-155583253D01*
X82768893Y-155597868D01*
X82747850Y-155610480D01*
X82725671Y-155620970D01*
X82702572Y-155629235D01*
X82678773Y-155635196D01*
X82654505Y-155638796D01*
X82630001Y-155640000D01*
X81979999Y-155640000D01*
X81955495Y-155638796D01*
X81931227Y-155635196D01*
X81907428Y-155629235D01*
X81884329Y-155620970D01*
X81862150Y-155610480D01*
X81841107Y-155597868D01*
X81821401Y-155583253D01*
X81803223Y-155566777D01*
X81786747Y-155548599D01*
X81772132Y-155528893D01*
X81759520Y-155507850D01*
X81749030Y-155485671D01*
X81740765Y-155462572D01*
X81734804Y-155438773D01*
X81731204Y-155414505D01*
X81730000Y-155390001D01*
X81730000Y-154489999D01*
X81731204Y-154465495D01*
X81734804Y-154441227D01*
X81740765Y-154417428D01*
X81749030Y-154394329D01*
X81759520Y-154372150D01*
X81772132Y-154351107D01*
X81786747Y-154331401D01*
X81803223Y-154313223D01*
X81821401Y-154296747D01*
X81841107Y-154282132D01*
X81862150Y-154269520D01*
X81884329Y-154259030D01*
X81907428Y-154250765D01*
X81931227Y-154244804D01*
X81955495Y-154241204D01*
X81979999Y-154240000D01*
X82630001Y-154240000D01*
X82654505Y-154241204D01*
G37*
G36*
X80604505Y-154241204D02*
G01*
X80628773Y-154244804D01*
X80652572Y-154250765D01*
X80675671Y-154259030D01*
X80697850Y-154269520D01*
X80718893Y-154282132D01*
X80738599Y-154296747D01*
X80756777Y-154313223D01*
X80773253Y-154331401D01*
X80787868Y-154351107D01*
X80800480Y-154372150D01*
X80810970Y-154394329D01*
X80819235Y-154417428D01*
X80825196Y-154441227D01*
X80828796Y-154465495D01*
X80830000Y-154489999D01*
X80830000Y-155390001D01*
X80828796Y-155414505D01*
X80825196Y-155438773D01*
X80819235Y-155462572D01*
X80810970Y-155485671D01*
X80800480Y-155507850D01*
X80787868Y-155528893D01*
X80773253Y-155548599D01*
X80756777Y-155566777D01*
X80738599Y-155583253D01*
X80718893Y-155597868D01*
X80697850Y-155610480D01*
X80675671Y-155620970D01*
X80652572Y-155629235D01*
X80628773Y-155635196D01*
X80604505Y-155638796D01*
X80580001Y-155640000D01*
X79929999Y-155640000D01*
X79905495Y-155638796D01*
X79881227Y-155635196D01*
X79857428Y-155629235D01*
X79834329Y-155620970D01*
X79812150Y-155610480D01*
X79791107Y-155597868D01*
X79771401Y-155583253D01*
X79753223Y-155566777D01*
X79736747Y-155548599D01*
X79722132Y-155528893D01*
X79709520Y-155507850D01*
X79699030Y-155485671D01*
X79690765Y-155462572D01*
X79684804Y-155438773D01*
X79681204Y-155414505D01*
X79680000Y-155390001D01*
X79680000Y-154489999D01*
X79681204Y-154465495D01*
X79684804Y-154441227D01*
X79690765Y-154417428D01*
X79699030Y-154394329D01*
X79709520Y-154372150D01*
X79722132Y-154351107D01*
X79736747Y-154331401D01*
X79753223Y-154313223D01*
X79771401Y-154296747D01*
X79791107Y-154282132D01*
X79812150Y-154269520D01*
X79834329Y-154259030D01*
X79857428Y-154250765D01*
X79881227Y-154244804D01*
X79905495Y-154241204D01*
X79929999Y-154240000D01*
X80580001Y-154240000D01*
X80604505Y-154241204D01*
G37*
G36*
X82654505Y-156781204D02*
G01*
X82678773Y-156784804D01*
X82702572Y-156790765D01*
X82725671Y-156799030D01*
X82747850Y-156809520D01*
X82768893Y-156822132D01*
X82788599Y-156836747D01*
X82806777Y-156853223D01*
X82823253Y-156871401D01*
X82837868Y-156891107D01*
X82850480Y-156912150D01*
X82860970Y-156934329D01*
X82869235Y-156957428D01*
X82875196Y-156981227D01*
X82878796Y-157005495D01*
X82880000Y-157029999D01*
X82880000Y-157930001D01*
X82878796Y-157954505D01*
X82875196Y-157978773D01*
X82869235Y-158002572D01*
X82860970Y-158025671D01*
X82850480Y-158047850D01*
X82837868Y-158068893D01*
X82823253Y-158088599D01*
X82806777Y-158106777D01*
X82788599Y-158123253D01*
X82768893Y-158137868D01*
X82747850Y-158150480D01*
X82725671Y-158160970D01*
X82702572Y-158169235D01*
X82678773Y-158175196D01*
X82654505Y-158178796D01*
X82630001Y-158180000D01*
X81979999Y-158180000D01*
X81955495Y-158178796D01*
X81931227Y-158175196D01*
X81907428Y-158169235D01*
X81884329Y-158160970D01*
X81862150Y-158150480D01*
X81841107Y-158137868D01*
X81821401Y-158123253D01*
X81803223Y-158106777D01*
X81786747Y-158088599D01*
X81772132Y-158068893D01*
X81759520Y-158047850D01*
X81749030Y-158025671D01*
X81740765Y-158002572D01*
X81734804Y-157978773D01*
X81731204Y-157954505D01*
X81730000Y-157930001D01*
X81730000Y-157029999D01*
X81731204Y-157005495D01*
X81734804Y-156981227D01*
X81740765Y-156957428D01*
X81749030Y-156934329D01*
X81759520Y-156912150D01*
X81772132Y-156891107D01*
X81786747Y-156871401D01*
X81803223Y-156853223D01*
X81821401Y-156836747D01*
X81841107Y-156822132D01*
X81862150Y-156809520D01*
X81884329Y-156799030D01*
X81907428Y-156790765D01*
X81931227Y-156784804D01*
X81955495Y-156781204D01*
X81979999Y-156780000D01*
X82630001Y-156780000D01*
X82654505Y-156781204D01*
G37*
G36*
X80604505Y-156781204D02*
G01*
X80628773Y-156784804D01*
X80652572Y-156790765D01*
X80675671Y-156799030D01*
X80697850Y-156809520D01*
X80718893Y-156822132D01*
X80738599Y-156836747D01*
X80756777Y-156853223D01*
X80773253Y-156871401D01*
X80787868Y-156891107D01*
X80800480Y-156912150D01*
X80810970Y-156934329D01*
X80819235Y-156957428D01*
X80825196Y-156981227D01*
X80828796Y-157005495D01*
X80830000Y-157029999D01*
X80830000Y-157930001D01*
X80828796Y-157954505D01*
X80825196Y-157978773D01*
X80819235Y-158002572D01*
X80810970Y-158025671D01*
X80800480Y-158047850D01*
X80787868Y-158068893D01*
X80773253Y-158088599D01*
X80756777Y-158106777D01*
X80738599Y-158123253D01*
X80718893Y-158137868D01*
X80697850Y-158150480D01*
X80675671Y-158160970D01*
X80652572Y-158169235D01*
X80628773Y-158175196D01*
X80604505Y-158178796D01*
X80580001Y-158180000D01*
X79929999Y-158180000D01*
X79905495Y-158178796D01*
X79881227Y-158175196D01*
X79857428Y-158169235D01*
X79834329Y-158160970D01*
X79812150Y-158150480D01*
X79791107Y-158137868D01*
X79771401Y-158123253D01*
X79753223Y-158106777D01*
X79736747Y-158088599D01*
X79722132Y-158068893D01*
X79709520Y-158047850D01*
X79699030Y-158025671D01*
X79690765Y-158002572D01*
X79684804Y-157978773D01*
X79681204Y-157954505D01*
X79680000Y-157930001D01*
X79680000Y-157029999D01*
X79681204Y-157005495D01*
X79684804Y-156981227D01*
X79690765Y-156957428D01*
X79699030Y-156934329D01*
X79709520Y-156912150D01*
X79722132Y-156891107D01*
X79736747Y-156871401D01*
X79753223Y-156853223D01*
X79771401Y-156836747D01*
X79791107Y-156822132D01*
X79812150Y-156809520D01*
X79834329Y-156799030D01*
X79857428Y-156790765D01*
X79881227Y-156784804D01*
X79905495Y-156781204D01*
X79929999Y-156780000D01*
X80580001Y-156780000D01*
X80604505Y-156781204D01*
G37*
G36*
X81754505Y-50417511D02*
G01*
X81778773Y-50421111D01*
X81802572Y-50427072D01*
X81825671Y-50435337D01*
X81847850Y-50445827D01*
X81868893Y-50458439D01*
X81888599Y-50473054D01*
X81906777Y-50489530D01*
X81923253Y-50507708D01*
X81937868Y-50527414D01*
X81950480Y-50548457D01*
X81960970Y-50570636D01*
X81969235Y-50593735D01*
X81975196Y-50617534D01*
X81978796Y-50641802D01*
X81980000Y-50666306D01*
X81980000Y-51316308D01*
X81978796Y-51340812D01*
X81975196Y-51365080D01*
X81969235Y-51388879D01*
X81960970Y-51411978D01*
X81950480Y-51434157D01*
X81937868Y-51455200D01*
X81923253Y-51474906D01*
X81906777Y-51493084D01*
X81888599Y-51509560D01*
X81868893Y-51524175D01*
X81847850Y-51536787D01*
X81825671Y-51547277D01*
X81802572Y-51555542D01*
X81778773Y-51561503D01*
X81754505Y-51565103D01*
X81730001Y-51566307D01*
X80829999Y-51566307D01*
X80805495Y-51565103D01*
X80781227Y-51561503D01*
X80757428Y-51555542D01*
X80734329Y-51547277D01*
X80712150Y-51536787D01*
X80691107Y-51524175D01*
X80671401Y-51509560D01*
X80653223Y-51493084D01*
X80636747Y-51474906D01*
X80622132Y-51455200D01*
X80609520Y-51434157D01*
X80599030Y-51411978D01*
X80590765Y-51388879D01*
X80584804Y-51365080D01*
X80581204Y-51340812D01*
X80580000Y-51316308D01*
X80580000Y-50666306D01*
X80581204Y-50641802D01*
X80584804Y-50617534D01*
X80590765Y-50593735D01*
X80599030Y-50570636D01*
X80609520Y-50548457D01*
X80622132Y-50527414D01*
X80636747Y-50507708D01*
X80653223Y-50489530D01*
X80671401Y-50473054D01*
X80691107Y-50458439D01*
X80712150Y-50445827D01*
X80734329Y-50435337D01*
X80757428Y-50427072D01*
X80781227Y-50421111D01*
X80805495Y-50417511D01*
X80829999Y-50416307D01*
X81730001Y-50416307D01*
X81754505Y-50417511D01*
G37*
G36*
X81754505Y-52467511D02*
G01*
X81778773Y-52471111D01*
X81802572Y-52477072D01*
X81825671Y-52485337D01*
X81847850Y-52495827D01*
X81868893Y-52508439D01*
X81888599Y-52523054D01*
X81906777Y-52539530D01*
X81923253Y-52557708D01*
X81937868Y-52577414D01*
X81950480Y-52598457D01*
X81960970Y-52620636D01*
X81969235Y-52643735D01*
X81975196Y-52667534D01*
X81978796Y-52691802D01*
X81980000Y-52716306D01*
X81980000Y-53366308D01*
X81978796Y-53390812D01*
X81975196Y-53415080D01*
X81969235Y-53438879D01*
X81960970Y-53461978D01*
X81950480Y-53484157D01*
X81937868Y-53505200D01*
X81923253Y-53524906D01*
X81906777Y-53543084D01*
X81888599Y-53559560D01*
X81868893Y-53574175D01*
X81847850Y-53586787D01*
X81825671Y-53597277D01*
X81802572Y-53605542D01*
X81778773Y-53611503D01*
X81754505Y-53615103D01*
X81730001Y-53616307D01*
X80829999Y-53616307D01*
X80805495Y-53615103D01*
X80781227Y-53611503D01*
X80757428Y-53605542D01*
X80734329Y-53597277D01*
X80712150Y-53586787D01*
X80691107Y-53574175D01*
X80671401Y-53559560D01*
X80653223Y-53543084D01*
X80636747Y-53524906D01*
X80622132Y-53505200D01*
X80609520Y-53484157D01*
X80599030Y-53461978D01*
X80590765Y-53438879D01*
X80584804Y-53415080D01*
X80581204Y-53390812D01*
X80580000Y-53366308D01*
X80580000Y-52716306D01*
X80581204Y-52691802D01*
X80584804Y-52667534D01*
X80590765Y-52643735D01*
X80599030Y-52620636D01*
X80609520Y-52598457D01*
X80622132Y-52577414D01*
X80636747Y-52557708D01*
X80653223Y-52539530D01*
X80671401Y-52523054D01*
X80691107Y-52508439D01*
X80712150Y-52495827D01*
X80734329Y-52485337D01*
X80757428Y-52477072D01*
X80781227Y-52471111D01*
X80805495Y-52467511D01*
X80829999Y-52466307D01*
X81730001Y-52466307D01*
X81754505Y-52467511D01*
G37*
G36*
X79214505Y-52500425D02*
G01*
X79238773Y-52504025D01*
X79262572Y-52509986D01*
X79285671Y-52518251D01*
X79307850Y-52528741D01*
X79328893Y-52541353D01*
X79348599Y-52555968D01*
X79366777Y-52572444D01*
X79383253Y-52590622D01*
X79397868Y-52610328D01*
X79410480Y-52631371D01*
X79420970Y-52653550D01*
X79429235Y-52676649D01*
X79435196Y-52700448D01*
X79438796Y-52724716D01*
X79440000Y-52749220D01*
X79440000Y-53399222D01*
X79438796Y-53423726D01*
X79435196Y-53447994D01*
X79429235Y-53471793D01*
X79420970Y-53494892D01*
X79410480Y-53517071D01*
X79397868Y-53538114D01*
X79383253Y-53557820D01*
X79366777Y-53575998D01*
X79348599Y-53592474D01*
X79328893Y-53607089D01*
X79307850Y-53619701D01*
X79285671Y-53630191D01*
X79262572Y-53638456D01*
X79238773Y-53644417D01*
X79214505Y-53648017D01*
X79190001Y-53649221D01*
X78289999Y-53649221D01*
X78265495Y-53648017D01*
X78241227Y-53644417D01*
X78217428Y-53638456D01*
X78194329Y-53630191D01*
X78172150Y-53619701D01*
X78151107Y-53607089D01*
X78131401Y-53592474D01*
X78113223Y-53575998D01*
X78096747Y-53557820D01*
X78082132Y-53538114D01*
X78069520Y-53517071D01*
X78059030Y-53494892D01*
X78050765Y-53471793D01*
X78044804Y-53447994D01*
X78041204Y-53423726D01*
X78040000Y-53399222D01*
X78040000Y-52749220D01*
X78041204Y-52724716D01*
X78044804Y-52700448D01*
X78050765Y-52676649D01*
X78059030Y-52653550D01*
X78069520Y-52631371D01*
X78082132Y-52610328D01*
X78096747Y-52590622D01*
X78113223Y-52572444D01*
X78131401Y-52555968D01*
X78151107Y-52541353D01*
X78172150Y-52528741D01*
X78194329Y-52518251D01*
X78217428Y-52509986D01*
X78241227Y-52504025D01*
X78265495Y-52500425D01*
X78289999Y-52499221D01*
X79190001Y-52499221D01*
X79214505Y-52500425D01*
G37*
G36*
X79214505Y-50450425D02*
G01*
X79238773Y-50454025D01*
X79262572Y-50459986D01*
X79285671Y-50468251D01*
X79307850Y-50478741D01*
X79328893Y-50491353D01*
X79348599Y-50505968D01*
X79366777Y-50522444D01*
X79383253Y-50540622D01*
X79397868Y-50560328D01*
X79410480Y-50581371D01*
X79420970Y-50603550D01*
X79429235Y-50626649D01*
X79435196Y-50650448D01*
X79438796Y-50674716D01*
X79440000Y-50699220D01*
X79440000Y-51349222D01*
X79438796Y-51373726D01*
X79435196Y-51397994D01*
X79429235Y-51421793D01*
X79420970Y-51444892D01*
X79410480Y-51467071D01*
X79397868Y-51488114D01*
X79383253Y-51507820D01*
X79366777Y-51525998D01*
X79348599Y-51542474D01*
X79328893Y-51557089D01*
X79307850Y-51569701D01*
X79285671Y-51580191D01*
X79262572Y-51588456D01*
X79238773Y-51594417D01*
X79214505Y-51598017D01*
X79190001Y-51599221D01*
X78289999Y-51599221D01*
X78265495Y-51598017D01*
X78241227Y-51594417D01*
X78217428Y-51588456D01*
X78194329Y-51580191D01*
X78172150Y-51569701D01*
X78151107Y-51557089D01*
X78131401Y-51542474D01*
X78113223Y-51525998D01*
X78096747Y-51507820D01*
X78082132Y-51488114D01*
X78069520Y-51467071D01*
X78059030Y-51444892D01*
X78050765Y-51421793D01*
X78044804Y-51397994D01*
X78041204Y-51373726D01*
X78040000Y-51349222D01*
X78040000Y-50699220D01*
X78041204Y-50674716D01*
X78044804Y-50650448D01*
X78050765Y-50626649D01*
X78059030Y-50603550D01*
X78069520Y-50581371D01*
X78082132Y-50560328D01*
X78096747Y-50540622D01*
X78113223Y-50522444D01*
X78131401Y-50505968D01*
X78151107Y-50491353D01*
X78172150Y-50478741D01*
X78194329Y-50468251D01*
X78217428Y-50459986D01*
X78241227Y-50454025D01*
X78265495Y-50450425D01*
X78289999Y-50449221D01*
X79190001Y-50449221D01*
X79214505Y-50450425D01*
G37*
G36*
X76674505Y-50412446D02*
G01*
X76698773Y-50416046D01*
X76722572Y-50422007D01*
X76745671Y-50430272D01*
X76767850Y-50440762D01*
X76788893Y-50453374D01*
X76808599Y-50467989D01*
X76826777Y-50484465D01*
X76843253Y-50502643D01*
X76857868Y-50522349D01*
X76870480Y-50543392D01*
X76880970Y-50565571D01*
X76889235Y-50588670D01*
X76895196Y-50612469D01*
X76898796Y-50636737D01*
X76900000Y-50661241D01*
X76900000Y-51311243D01*
X76898796Y-51335747D01*
X76895196Y-51360015D01*
X76889235Y-51383814D01*
X76880970Y-51406913D01*
X76870480Y-51429092D01*
X76857868Y-51450135D01*
X76843253Y-51469841D01*
X76826777Y-51488019D01*
X76808599Y-51504495D01*
X76788893Y-51519110D01*
X76767850Y-51531722D01*
X76745671Y-51542212D01*
X76722572Y-51550477D01*
X76698773Y-51556438D01*
X76674505Y-51560038D01*
X76650001Y-51561242D01*
X75749999Y-51561242D01*
X75725495Y-51560038D01*
X75701227Y-51556438D01*
X75677428Y-51550477D01*
X75654329Y-51542212D01*
X75632150Y-51531722D01*
X75611107Y-51519110D01*
X75591401Y-51504495D01*
X75573223Y-51488019D01*
X75556747Y-51469841D01*
X75542132Y-51450135D01*
X75529520Y-51429092D01*
X75519030Y-51406913D01*
X75510765Y-51383814D01*
X75504804Y-51360015D01*
X75501204Y-51335747D01*
X75500000Y-51311243D01*
X75500000Y-50661241D01*
X75501204Y-50636737D01*
X75504804Y-50612469D01*
X75510765Y-50588670D01*
X75519030Y-50565571D01*
X75529520Y-50543392D01*
X75542132Y-50522349D01*
X75556747Y-50502643D01*
X75573223Y-50484465D01*
X75591401Y-50467989D01*
X75611107Y-50453374D01*
X75632150Y-50440762D01*
X75654329Y-50430272D01*
X75677428Y-50422007D01*
X75701227Y-50416046D01*
X75725495Y-50412446D01*
X75749999Y-50411242D01*
X76650001Y-50411242D01*
X76674505Y-50412446D01*
G37*
G36*
X76674505Y-52462446D02*
G01*
X76698773Y-52466046D01*
X76722572Y-52472007D01*
X76745671Y-52480272D01*
X76767850Y-52490762D01*
X76788893Y-52503374D01*
X76808599Y-52517989D01*
X76826777Y-52534465D01*
X76843253Y-52552643D01*
X76857868Y-52572349D01*
X76870480Y-52593392D01*
X76880970Y-52615571D01*
X76889235Y-52638670D01*
X76895196Y-52662469D01*
X76898796Y-52686737D01*
X76900000Y-52711241D01*
X76900000Y-53361243D01*
X76898796Y-53385747D01*
X76895196Y-53410015D01*
X76889235Y-53433814D01*
X76880970Y-53456913D01*
X76870480Y-53479092D01*
X76857868Y-53500135D01*
X76843253Y-53519841D01*
X76826777Y-53538019D01*
X76808599Y-53554495D01*
X76788893Y-53569110D01*
X76767850Y-53581722D01*
X76745671Y-53592212D01*
X76722572Y-53600477D01*
X76698773Y-53606438D01*
X76674505Y-53610038D01*
X76650001Y-53611242D01*
X75749999Y-53611242D01*
X75725495Y-53610038D01*
X75701227Y-53606438D01*
X75677428Y-53600477D01*
X75654329Y-53592212D01*
X75632150Y-53581722D01*
X75611107Y-53569110D01*
X75591401Y-53554495D01*
X75573223Y-53538019D01*
X75556747Y-53519841D01*
X75542132Y-53500135D01*
X75529520Y-53479092D01*
X75519030Y-53456913D01*
X75510765Y-53433814D01*
X75504804Y-53410015D01*
X75501204Y-53385747D01*
X75500000Y-53361243D01*
X75500000Y-52711241D01*
X75501204Y-52686737D01*
X75504804Y-52662469D01*
X75510765Y-52638670D01*
X75519030Y-52615571D01*
X75529520Y-52593392D01*
X75542132Y-52572349D01*
X75556747Y-52552643D01*
X75573223Y-52534465D01*
X75591401Y-52517989D01*
X75611107Y-52503374D01*
X75632150Y-52490762D01*
X75654329Y-52480272D01*
X75677428Y-52472007D01*
X75701227Y-52466046D01*
X75725495Y-52462446D01*
X75749999Y-52461242D01*
X76650001Y-52461242D01*
X76674505Y-52462446D01*
G37*
M02*
