M48
; DRILL file {KiCad (5.1.5)-3} date 03/15/20 10:15:15
; FORMAT={-:-/ absolute / inch / decimal}
; #@! TF.CreationDate,2020-03-15T10:15:15+01:00
; #@! TF.GenerationSoftware,Kicad,Pcbnew,(5.1.5)-3
; #@! TF.FileFunction,Plated,1,2,PTH
FMAT,2
INCH
T1C0.0157
T2C0.0276
T3C0.0394
T4C0.0433
T5C0.0787
%
G90
G05
T1
X3.1963Y-3.4883
X3.2Y-2.1
X4.1955Y-3.6692
X4.2Y-2.2
T2
X-1.3404Y-3.2297
X-1.2404Y-3.3297
X-1.1404Y-3.2297
X-0.8148Y-2.5959
X-0.7148Y-2.6959
X-0.6148Y-2.5959
X-1.7715Y-3.2297
X-1.6715Y-3.3297
X-1.5715Y-3.2297
X-0.8148Y-3.027
X-0.7148Y-3.127
X-0.6148Y-3.027
T3
X-0.8604Y-3.4502
X-6.6281Y-2.4719
X-6.6281Y-2.5719
X-6.6281Y-2.6719
X-6.6281Y-2.7719
X-6.6281Y-2.8719
X-6.6281Y-2.9719
X-6.6281Y-3.0719
X-6.6281Y-3.1719
X-6.6281Y-3.2719
X-6.6281Y-3.3719
X-6.6281Y-3.4719
X-6.6281Y-3.5719
X-6.6281Y-3.6719
X-6.6281Y-3.7719
X-6.6281Y-3.8719
X-6.6281Y-3.9719
X-6.6281Y-4.0719
X-6.6281Y-4.1719
X-6.6281Y-4.2719
X-6.6281Y-4.3719
X-6.5281Y-2.4719
X-6.5281Y-2.5719
X-6.5281Y-2.6719
X-6.5281Y-2.7719
X-6.5281Y-2.8719
X-6.5281Y-2.9719
X-6.5281Y-3.0719
X-6.5281Y-3.1719
X-6.5281Y-3.2719
X-6.5281Y-3.3719
X-6.5281Y-3.4719
X-6.5281Y-3.5719
X-6.5281Y-3.6719
X-6.5281Y-3.7719
X-6.5281Y-3.8719
X-6.5281Y-3.9719
X-6.5281Y-4.0719
X-6.5281Y-4.1719
X-6.5281Y-4.2719
X-6.5281Y-4.3719
X-4.1252Y-5.49
X-3.9284Y-5.49
X-1.0474Y-3.653
X-4.6878Y-5.9722
X-4.491Y-5.9722
X-4.9167Y-5.6002
X-4.9167Y-5.7002
X-4.9167Y-5.8002
X-4.9167Y-5.9002
X-2.4569Y-2.4719
X-2.4569Y-2.5719
X-2.4569Y-2.6719
X-2.4569Y-2.7719
X-2.4569Y-2.8719
X3.9Y-3.6
X3.9Y-3.7969
X-5.6132Y-6.1199
X-5.6132Y-6.2199
X-5.6132Y-6.3199
X-5.6132Y-6.4199
X-2.4569Y-3.0545
X-2.4569Y-3.1545
X-2.4569Y-3.2545
X-2.4569Y-3.3545
X-2.4569Y-3.4545
X-2.4569Y-3.6372
X3.8983Y-2.1442
X3.8983Y-2.3411
X-4.3561Y-5.3541
X-4.3561Y-5.4541
X-4.3561Y-5.5541
X-4.3561Y-5.6541
X-4.3427Y-4.8719
X-4.3427Y-4.9719
X-4.3427Y-5.0719
X-4.3427Y-5.1719
X-4.1596Y-4.8719
X-4.1596Y-4.9719
X-4.1596Y-5.0719
X-4.1596Y-5.1719
X-0.4077Y-3.0526
X-5.4321Y-6.1159
X-5.4321Y-6.2159
X-5.4321Y-6.3159
X-5.4321Y-6.4159
T4
X-5.2152Y-6.4959
X-5.1152Y-6.4959
X-5.0152Y-6.4959
T5
X-5.8943Y-5.6415
X-5.6443Y-5.6415
X-6.5907Y-6.3561
X-6.3407Y-6.3561
X-6.0167Y-5.8994
X-5.7667Y-5.8994
X-4.8128Y-4.9093
X-4.5628Y-4.9093
X-5.3203Y-4.9093
X-5.0703Y-4.9093
X-5.3868Y-5.425
X-5.1368Y-5.425
X-5.3203Y-5.1671
X-5.0703Y-5.1671
X-6.0833Y-6.3561
X-5.8333Y-6.3561
X-5.8943Y-5.3837
X-5.6443Y-5.3837
T0
M30
