G04 #@! TF.GenerationSoftware,KiCad,Pcbnew,(5.1.5)-3*
G04 #@! TF.CreationDate,2020-03-15T10:16:25+01:00*
G04 #@! TF.ProjectId,TFG_PCB,5446475f-5043-4422-9e6b-696361645f70,rev?*
G04 #@! TF.SameCoordinates,Original*
G04 #@! TF.FileFunction,Soldermask,Bot*
G04 #@! TF.FilePolarity,Negative*
%FSLAX46Y46*%
G04 Gerber Fmt 4.6, Leading zero omitted, Abs format (unit mm)*
G04 Created by KiCad (PCBNEW (5.1.5)-3) date 2020-03-15 10:16:25*
%MOMM*%
%LPD*%
G04 APERTURE LIST*
%ADD10C,0.100000*%
G04 APERTURE END LIST*
D10*
G36*
X-129728280Y-163958521D02*
G01*
X-129539119Y-164015902D01*
X-129539116Y-164015903D01*
X-129446666Y-164065319D01*
X-129364787Y-164109084D01*
X-129211984Y-164234486D01*
X-129086582Y-164387289D01*
X-128993400Y-164561620D01*
X-128936019Y-164750781D01*
X-128921499Y-164898207D01*
X-128921499Y-165091794D01*
X-128936019Y-165239220D01*
X-128993400Y-165428381D01*
X-128993401Y-165428384D01*
X-129042817Y-165520834D01*
X-129086582Y-165602713D01*
X-129211984Y-165755516D01*
X-129364787Y-165880918D01*
X-129539118Y-165974100D01*
X-129728279Y-166031481D01*
X-129924999Y-166050856D01*
X-130121718Y-166031481D01*
X-130310879Y-165974100D01*
X-130485211Y-165880918D01*
X-130638014Y-165755516D01*
X-130763416Y-165602713D01*
X-130856598Y-165428382D01*
X-130913979Y-165239221D01*
X-130928499Y-165091795D01*
X-130928499Y-164898208D01*
X-130913979Y-164750782D01*
X-130856598Y-164561621D01*
X-130856597Y-164561618D01*
X-130807181Y-164469168D01*
X-130763416Y-164387289D01*
X-130638014Y-164234486D01*
X-130485211Y-164109084D01*
X-130310880Y-164015902D01*
X-130121719Y-163958521D01*
X-129924999Y-163939146D01*
X-129728280Y-163958521D01*
G37*
G36*
X-127188280Y-163958521D02*
G01*
X-126999119Y-164015902D01*
X-126999116Y-164015903D01*
X-126906666Y-164065319D01*
X-126824787Y-164109084D01*
X-126671984Y-164234486D01*
X-126546582Y-164387289D01*
X-126453400Y-164561620D01*
X-126396019Y-164750781D01*
X-126381499Y-164898207D01*
X-126381499Y-165091794D01*
X-126396019Y-165239220D01*
X-126453400Y-165428381D01*
X-126453401Y-165428384D01*
X-126502817Y-165520834D01*
X-126546582Y-165602713D01*
X-126671984Y-165755516D01*
X-126824787Y-165880918D01*
X-126999118Y-165974100D01*
X-127188279Y-166031481D01*
X-127384999Y-166050856D01*
X-127581718Y-166031481D01*
X-127770879Y-165974100D01*
X-127945211Y-165880918D01*
X-128098014Y-165755516D01*
X-128223416Y-165602713D01*
X-128316598Y-165428382D01*
X-128373979Y-165239221D01*
X-128388499Y-165091795D01*
X-128388499Y-164898208D01*
X-128373979Y-164750782D01*
X-128316598Y-164561621D01*
X-128316597Y-164561618D01*
X-128267181Y-164469168D01*
X-128223416Y-164387289D01*
X-128098014Y-164234486D01*
X-127945211Y-164109084D01*
X-127770880Y-164015902D01*
X-127581719Y-163958521D01*
X-127384999Y-163939146D01*
X-127188280Y-163958521D01*
G37*
G36*
X-131461499Y-166046001D02*
G01*
X-133468499Y-166046001D01*
X-133468499Y-163944001D01*
X-131461499Y-163944001D01*
X-131461499Y-166046001D01*
G37*
G36*
X-142473468Y-162166545D02*
G01*
X-142312187Y-162198625D01*
X-142148215Y-162266545D01*
X-142000645Y-162365148D01*
X-141875146Y-162490647D01*
X-141776543Y-162638217D01*
X-141708623Y-162802189D01*
X-141673999Y-162976260D01*
X-141673999Y-163153742D01*
X-141708623Y-163327813D01*
X-141776543Y-163491785D01*
X-141875146Y-163639355D01*
X-142000645Y-163764854D01*
X-142148215Y-163863457D01*
X-142312187Y-163931377D01*
X-142448653Y-163958521D01*
X-142486257Y-163966001D01*
X-142663741Y-163966001D01*
X-142701345Y-163958521D01*
X-142837811Y-163931377D01*
X-143001783Y-163863457D01*
X-143149353Y-163764854D01*
X-143274852Y-163639355D01*
X-143373455Y-163491785D01*
X-143441375Y-163327813D01*
X-143475999Y-163153742D01*
X-143475999Y-162976260D01*
X-143441375Y-162802189D01*
X-143373455Y-162638217D01*
X-143274852Y-162490647D01*
X-143149353Y-162365148D01*
X-143001783Y-162266545D01*
X-142837811Y-162198625D01*
X-142676530Y-162166545D01*
X-142663741Y-162164001D01*
X-142486257Y-162164001D01*
X-142473468Y-162166545D01*
G37*
G36*
X-137861487Y-162068928D02*
G01*
X-137712187Y-162098625D01*
X-137548215Y-162166545D01*
X-137400645Y-162265148D01*
X-137275146Y-162390647D01*
X-137176543Y-162538217D01*
X-137108623Y-162702189D01*
X-137073999Y-162876260D01*
X-137073999Y-163053742D01*
X-137108623Y-163227813D01*
X-137176543Y-163391785D01*
X-137275146Y-163539355D01*
X-137400645Y-163664854D01*
X-137548215Y-163763457D01*
X-137712187Y-163831377D01*
X-137861487Y-163861074D01*
X-137886257Y-163866001D01*
X-138063741Y-163866001D01*
X-138088511Y-163861074D01*
X-138237811Y-163831377D01*
X-138401783Y-163763457D01*
X-138549353Y-163664854D01*
X-138674852Y-163539355D01*
X-138773455Y-163391785D01*
X-138841375Y-163227813D01*
X-138875999Y-163053742D01*
X-138875999Y-162876260D01*
X-138841375Y-162702189D01*
X-138773455Y-162538217D01*
X-138674852Y-162390647D01*
X-138549353Y-162265148D01*
X-138401783Y-162166545D01*
X-138237811Y-162098625D01*
X-138088511Y-162068928D01*
X-138063741Y-162064001D01*
X-137886257Y-162064001D01*
X-137861487Y-162068928D01*
G37*
G36*
X-165103559Y-163746441D02*
G01*
X-169706439Y-163746441D01*
X-169706439Y-159143561D01*
X-165103559Y-159143561D01*
X-165103559Y-163746441D01*
G37*
G36*
X-152213559Y-163746441D02*
G01*
X-156816439Y-163746441D01*
X-156816439Y-159143561D01*
X-152213559Y-159143561D01*
X-152213559Y-163746441D01*
G37*
G36*
X-147493695Y-159232003D02*
G01*
X-147074860Y-159405490D01*
X-147074858Y-159405491D01*
X-146897496Y-159524001D01*
X-146697917Y-159657355D01*
X-146377353Y-159977919D01*
X-146125488Y-160354862D01*
X-145952001Y-160773697D01*
X-145863559Y-161218328D01*
X-145863559Y-161671674D01*
X-145952001Y-162116305D01*
X-146107059Y-162490648D01*
X-146125489Y-162535142D01*
X-146377354Y-162912084D01*
X-146697916Y-163232646D01*
X-147074858Y-163484511D01*
X-147074859Y-163484512D01*
X-147074860Y-163484512D01*
X-147493695Y-163657999D01*
X-147938326Y-163746441D01*
X-148391672Y-163746441D01*
X-148836303Y-163657999D01*
X-149255138Y-163484512D01*
X-149255139Y-163484512D01*
X-149255140Y-163484511D01*
X-149632082Y-163232646D01*
X-149952644Y-162912084D01*
X-150204509Y-162535142D01*
X-150222939Y-162490648D01*
X-150377997Y-162116305D01*
X-150466439Y-161671674D01*
X-150466439Y-161218328D01*
X-150377997Y-160773697D01*
X-150204510Y-160354862D01*
X-149952645Y-159977919D01*
X-149632081Y-159657355D01*
X-149432502Y-159524001D01*
X-149255140Y-159405491D01*
X-149255138Y-159405490D01*
X-148836303Y-159232003D01*
X-148391672Y-159143561D01*
X-147938326Y-159143561D01*
X-147493695Y-159232003D01*
G37*
G36*
X-160383695Y-159232003D02*
G01*
X-159964860Y-159405490D01*
X-159964858Y-159405491D01*
X-159787496Y-159524001D01*
X-159587917Y-159657355D01*
X-159267353Y-159977919D01*
X-159015488Y-160354862D01*
X-158842001Y-160773697D01*
X-158753559Y-161218328D01*
X-158753559Y-161671674D01*
X-158842001Y-162116305D01*
X-158997059Y-162490648D01*
X-159015489Y-162535142D01*
X-159267354Y-162912084D01*
X-159587916Y-163232646D01*
X-159964858Y-163484511D01*
X-159964859Y-163484512D01*
X-159964860Y-163484512D01*
X-160383695Y-163657999D01*
X-160828326Y-163746441D01*
X-161281672Y-163746441D01*
X-161726303Y-163657999D01*
X-162145138Y-163484512D01*
X-162145139Y-163484512D01*
X-162145140Y-163484511D01*
X-162522082Y-163232646D01*
X-162842644Y-162912084D01*
X-163094509Y-162535142D01*
X-163112939Y-162490648D01*
X-163267997Y-162116305D01*
X-163356439Y-161671674D01*
X-163356439Y-161218328D01*
X-163267997Y-160773697D01*
X-163094510Y-160354862D01*
X-162842645Y-159977919D01*
X-162522081Y-159657355D01*
X-162322502Y-159524001D01*
X-162145140Y-159405491D01*
X-162145138Y-159405490D01*
X-161726303Y-159232003D01*
X-161281672Y-159143561D01*
X-160828326Y-159143561D01*
X-160383695Y-159232003D01*
G37*
G36*
X-142473468Y-159626545D02*
G01*
X-142312187Y-159658625D01*
X-142148215Y-159726545D01*
X-142000645Y-159825148D01*
X-141875146Y-159950647D01*
X-141776543Y-160098217D01*
X-141708623Y-160262189D01*
X-141673999Y-160436260D01*
X-141673999Y-160613742D01*
X-141708623Y-160787813D01*
X-141776543Y-160951785D01*
X-141875146Y-161099355D01*
X-142000645Y-161224854D01*
X-142148215Y-161323457D01*
X-142312187Y-161391377D01*
X-142461487Y-161421074D01*
X-142486257Y-161426001D01*
X-142663741Y-161426001D01*
X-142688511Y-161421074D01*
X-142837811Y-161391377D01*
X-143001783Y-161323457D01*
X-143149353Y-161224854D01*
X-143274852Y-161099355D01*
X-143373455Y-160951785D01*
X-143441375Y-160787813D01*
X-143475999Y-160613742D01*
X-143475999Y-160436260D01*
X-143441375Y-160262189D01*
X-143373455Y-160098217D01*
X-143274852Y-159950647D01*
X-143149353Y-159825148D01*
X-143001783Y-159726545D01*
X-142837811Y-159658625D01*
X-142676530Y-159626545D01*
X-142663741Y-159624001D01*
X-142486257Y-159624001D01*
X-142473468Y-159626545D01*
G37*
G36*
X-137861487Y-159528928D02*
G01*
X-137712187Y-159558625D01*
X-137548215Y-159626545D01*
X-137400645Y-159725148D01*
X-137275146Y-159850647D01*
X-137176543Y-159998217D01*
X-137108623Y-160162189D01*
X-137073999Y-160336260D01*
X-137073999Y-160513742D01*
X-137108623Y-160687813D01*
X-137176543Y-160851785D01*
X-137275146Y-160999355D01*
X-137400645Y-161124854D01*
X-137548215Y-161223457D01*
X-137712187Y-161291377D01*
X-137861487Y-161321074D01*
X-137886257Y-161326001D01*
X-138063741Y-161326001D01*
X-138088511Y-161321074D01*
X-138237811Y-161291377D01*
X-138401783Y-161223457D01*
X-138549353Y-161124854D01*
X-138674852Y-160999355D01*
X-138773455Y-160851785D01*
X-138841375Y-160687813D01*
X-138875999Y-160513742D01*
X-138875999Y-160336260D01*
X-138841375Y-160162189D01*
X-138773455Y-159998217D01*
X-138674852Y-159850647D01*
X-138549353Y-159725148D01*
X-138401783Y-159626545D01*
X-138237811Y-159558625D01*
X-138088511Y-159528928D01*
X-138063741Y-159524001D01*
X-137886257Y-159524001D01*
X-137861487Y-159528928D01*
G37*
G36*
X-142473468Y-157086545D02*
G01*
X-142312187Y-157118625D01*
X-142148215Y-157186545D01*
X-142000645Y-157285148D01*
X-141875146Y-157410647D01*
X-141776543Y-157558217D01*
X-141708623Y-157722189D01*
X-141673999Y-157896260D01*
X-141673999Y-158073742D01*
X-141708623Y-158247813D01*
X-141776543Y-158411785D01*
X-141875146Y-158559355D01*
X-142000645Y-158684854D01*
X-142148215Y-158783457D01*
X-142312187Y-158851377D01*
X-142461487Y-158881074D01*
X-142486257Y-158886001D01*
X-142663741Y-158886001D01*
X-142688511Y-158881074D01*
X-142837811Y-158851377D01*
X-143001783Y-158783457D01*
X-143149353Y-158684854D01*
X-143274852Y-158559355D01*
X-143373455Y-158411785D01*
X-143441375Y-158247813D01*
X-143475999Y-158073742D01*
X-143475999Y-157896260D01*
X-143441375Y-157722189D01*
X-143373455Y-157558217D01*
X-143274852Y-157410647D01*
X-143149353Y-157285148D01*
X-143001783Y-157186545D01*
X-142837811Y-157118625D01*
X-142676530Y-157086545D01*
X-142663741Y-157084001D01*
X-142486257Y-157084001D01*
X-142473468Y-157086545D01*
G37*
G36*
X-137861487Y-156988928D02*
G01*
X-137712187Y-157018625D01*
X-137548215Y-157086545D01*
X-137400645Y-157185148D01*
X-137275146Y-157310647D01*
X-137176543Y-157458217D01*
X-137108623Y-157622189D01*
X-137073999Y-157796260D01*
X-137073999Y-157973742D01*
X-137108623Y-158147813D01*
X-137176543Y-158311785D01*
X-137275146Y-158459355D01*
X-137400645Y-158584854D01*
X-137548215Y-158683457D01*
X-137712187Y-158751377D01*
X-137861487Y-158781074D01*
X-137886257Y-158786001D01*
X-138063741Y-158786001D01*
X-138088511Y-158781074D01*
X-138237811Y-158751377D01*
X-138401783Y-158683457D01*
X-138549353Y-158584854D01*
X-138674852Y-158459355D01*
X-138773455Y-158311785D01*
X-138841375Y-158147813D01*
X-138875999Y-157973742D01*
X-138875999Y-157796260D01*
X-138841375Y-157622189D01*
X-138773455Y-157458217D01*
X-138674852Y-157310647D01*
X-138549353Y-157185148D01*
X-138401783Y-157086545D01*
X-138237811Y-157018625D01*
X-138088511Y-156988928D01*
X-138063741Y-156984001D01*
X-137886257Y-156984001D01*
X-137861487Y-156988928D01*
G37*
G36*
X-141673999Y-156346001D02*
G01*
X-143475999Y-156346001D01*
X-143475999Y-154544001D01*
X-141673999Y-154544001D01*
X-141673999Y-156346001D01*
G37*
G36*
X-137073999Y-156246001D02*
G01*
X-138875999Y-156246001D01*
X-138875999Y-154444001D01*
X-137073999Y-154444001D01*
X-137073999Y-156246001D01*
G37*
G36*
X-113763789Y-150684390D02*
G01*
X-113572520Y-150763616D01*
X-113572518Y-150763617D01*
X-113400380Y-150878636D01*
X-113253988Y-151025028D01*
X-113138968Y-151197168D01*
X-113059742Y-151388437D01*
X-113019353Y-151591485D01*
X-113019353Y-151798517D01*
X-113059742Y-152001565D01*
X-113138968Y-152192834D01*
X-113138969Y-152192836D01*
X-113253988Y-152364974D01*
X-113400380Y-152511366D01*
X-113572518Y-152626385D01*
X-113572519Y-152626386D01*
X-113572520Y-152626386D01*
X-113763789Y-152705612D01*
X-113966837Y-152746001D01*
X-114173869Y-152746001D01*
X-114376917Y-152705612D01*
X-114568186Y-152626386D01*
X-114568187Y-152626386D01*
X-114568188Y-152626385D01*
X-114740326Y-152511366D01*
X-114886718Y-152364974D01*
X-115001737Y-152192836D01*
X-115001738Y-152192834D01*
X-115080964Y-152001565D01*
X-115121353Y-151798517D01*
X-115121353Y-151591485D01*
X-115080964Y-151388437D01*
X-115001738Y-151197168D01*
X-114886718Y-151025028D01*
X-114740326Y-150878636D01*
X-114568188Y-150763617D01*
X-114568186Y-150763616D01*
X-114376917Y-150684390D01*
X-114173869Y-150644001D01*
X-113966837Y-150644001D01*
X-113763789Y-150684390D01*
G37*
G36*
X-118019353Y-152746001D02*
G01*
X-120121353Y-152746001D01*
X-120121353Y-150644001D01*
X-118019353Y-150644001D01*
X-118019353Y-152746001D01*
G37*
G36*
X-150523559Y-152146441D02*
G01*
X-155126439Y-152146441D01*
X-155126439Y-147543561D01*
X-150523559Y-147543561D01*
X-150523559Y-152146441D01*
G37*
G36*
X-145803695Y-147632003D02*
G01*
X-145384860Y-147805490D01*
X-145384858Y-147805491D01*
X-145244382Y-147899354D01*
X-145007917Y-148057355D01*
X-144687353Y-148377919D01*
X-144435488Y-148754862D01*
X-144262001Y-149173697D01*
X-144173559Y-149618328D01*
X-144173559Y-150071674D01*
X-144262001Y-150516305D01*
X-144435488Y-150935140D01*
X-144435489Y-150935142D01*
X-144687354Y-151312084D01*
X-145007916Y-151632646D01*
X-145384858Y-151884511D01*
X-145384859Y-151884512D01*
X-145384860Y-151884512D01*
X-145803695Y-152057999D01*
X-146248326Y-152146441D01*
X-146701672Y-152146441D01*
X-147146303Y-152057999D01*
X-147565138Y-151884512D01*
X-147565139Y-151884512D01*
X-147565140Y-151884511D01*
X-147942082Y-151632646D01*
X-148262644Y-151312084D01*
X-148514509Y-150935142D01*
X-148514510Y-150935140D01*
X-148687997Y-150516305D01*
X-148776439Y-150071674D01*
X-148776439Y-149618328D01*
X-148687997Y-149173697D01*
X-148514510Y-148754862D01*
X-148262645Y-148377919D01*
X-147942081Y-148057355D01*
X-147705616Y-147899354D01*
X-147565140Y-147805491D01*
X-147565138Y-147805490D01*
X-147146303Y-147632003D01*
X-146701672Y-147543561D01*
X-146248326Y-147543561D01*
X-145803695Y-147632003D01*
G37*
G36*
X-124771487Y-148968928D02*
G01*
X-124622187Y-148998625D01*
X-124458215Y-149066545D01*
X-124310645Y-149165148D01*
X-124185146Y-149290647D01*
X-124086543Y-149438217D01*
X-124018623Y-149602189D01*
X-123983999Y-149776260D01*
X-123983999Y-149953742D01*
X-124018623Y-150127813D01*
X-124086543Y-150291785D01*
X-124185146Y-150439355D01*
X-124310645Y-150564854D01*
X-124458215Y-150663457D01*
X-124622187Y-150731377D01*
X-124771487Y-150761074D01*
X-124796257Y-150766001D01*
X-124973741Y-150766001D01*
X-124998511Y-150761074D01*
X-125147811Y-150731377D01*
X-125311783Y-150663457D01*
X-125459353Y-150564854D01*
X-125584852Y-150439355D01*
X-125683455Y-150291785D01*
X-125751375Y-150127813D01*
X-125785999Y-149953742D01*
X-125785999Y-149776260D01*
X-125751375Y-149602189D01*
X-125683455Y-149438217D01*
X-125584852Y-149290647D01*
X-125459353Y-149165148D01*
X-125311783Y-149066545D01*
X-125147811Y-148998625D01*
X-124998511Y-148968928D01*
X-124973741Y-148964001D01*
X-124796257Y-148964001D01*
X-124771487Y-148968928D01*
G37*
G36*
X-124771487Y-146428928D02*
G01*
X-124622187Y-146458625D01*
X-124458215Y-146526545D01*
X-124310645Y-146625148D01*
X-124185146Y-146750647D01*
X-124086543Y-146898217D01*
X-124018623Y-147062189D01*
X-123983999Y-147236260D01*
X-123983999Y-147413742D01*
X-124018623Y-147587813D01*
X-124086543Y-147751785D01*
X-124185146Y-147899355D01*
X-124310645Y-148024854D01*
X-124458215Y-148123457D01*
X-124622187Y-148191377D01*
X-124771487Y-148221074D01*
X-124796257Y-148226001D01*
X-124973741Y-148226001D01*
X-124998511Y-148221074D01*
X-125147811Y-148191377D01*
X-125311783Y-148123457D01*
X-125459353Y-148024854D01*
X-125584852Y-147899355D01*
X-125683455Y-147751785D01*
X-125751375Y-147587813D01*
X-125785999Y-147413742D01*
X-125785999Y-147236260D01*
X-125751375Y-147062189D01*
X-125683455Y-146898217D01*
X-125584852Y-146750647D01*
X-125459353Y-146625148D01*
X-125311783Y-146526545D01*
X-125147811Y-146458625D01*
X-124998511Y-146428928D01*
X-124973741Y-146424001D01*
X-124796257Y-146424001D01*
X-124771487Y-146428928D01*
G37*
G36*
X-124771487Y-143888928D02*
G01*
X-124622187Y-143918625D01*
X-124458215Y-143986545D01*
X-124310645Y-144085148D01*
X-124185146Y-144210647D01*
X-124086543Y-144358217D01*
X-124018623Y-144522189D01*
X-123983999Y-144696260D01*
X-123983999Y-144873742D01*
X-124018623Y-145047813D01*
X-124086543Y-145211785D01*
X-124185146Y-145359355D01*
X-124310645Y-145484854D01*
X-124458215Y-145583457D01*
X-124622187Y-145651377D01*
X-124771487Y-145681074D01*
X-124796257Y-145686001D01*
X-124973741Y-145686001D01*
X-124998511Y-145681074D01*
X-125147811Y-145651377D01*
X-125311783Y-145583457D01*
X-125459353Y-145484854D01*
X-125584852Y-145359355D01*
X-125683455Y-145211785D01*
X-125751375Y-145047813D01*
X-125785999Y-144873742D01*
X-125785999Y-144696260D01*
X-125751375Y-144522189D01*
X-125683455Y-144358217D01*
X-125584852Y-144210647D01*
X-125459353Y-144085148D01*
X-125311783Y-143986545D01*
X-125147811Y-143918625D01*
X-124998511Y-143888928D01*
X-124973741Y-143884001D01*
X-124796257Y-143884001D01*
X-124771487Y-143888928D01*
G37*
G36*
X-142693695Y-141082003D02*
G01*
X-142274860Y-141255490D01*
X-142274858Y-141255491D01*
X-142151656Y-141337812D01*
X-141897917Y-141507355D01*
X-141577353Y-141827919D01*
X-141325488Y-142204862D01*
X-141152001Y-142623697D01*
X-141063559Y-143068328D01*
X-141063559Y-143521674D01*
X-141152001Y-143966305D01*
X-141253211Y-144210647D01*
X-141325489Y-144385142D01*
X-141577354Y-144762084D01*
X-141897916Y-145082646D01*
X-142274858Y-145334511D01*
X-142274859Y-145334512D01*
X-142274860Y-145334512D01*
X-142693695Y-145507999D01*
X-143138326Y-145596441D01*
X-143591672Y-145596441D01*
X-144036303Y-145507999D01*
X-144455138Y-145334512D01*
X-144455139Y-145334512D01*
X-144455140Y-145334511D01*
X-144832082Y-145082646D01*
X-145152644Y-144762084D01*
X-145404509Y-144385142D01*
X-145476787Y-144210647D01*
X-145577997Y-143966305D01*
X-145666439Y-143521674D01*
X-145666439Y-143068328D01*
X-145577997Y-142623697D01*
X-145404510Y-142204862D01*
X-145152645Y-141827919D01*
X-144832081Y-141507355D01*
X-144578342Y-141337812D01*
X-144455140Y-141255491D01*
X-144455138Y-141255490D01*
X-144036303Y-141082003D01*
X-143591672Y-140993561D01*
X-143138326Y-140993561D01*
X-142693695Y-141082003D01*
G37*
G36*
X-147413559Y-145596441D02*
G01*
X-152016439Y-145596441D01*
X-152016439Y-140993561D01*
X-147413559Y-140993561D01*
X-147413559Y-145596441D01*
G37*
G36*
X-110531487Y-142718928D02*
G01*
X-110382187Y-142748625D01*
X-110218215Y-142816545D01*
X-110070645Y-142915148D01*
X-109945146Y-143040647D01*
X-109846543Y-143188217D01*
X-109778623Y-143352189D01*
X-109743999Y-143526260D01*
X-109743999Y-143703742D01*
X-109778623Y-143877813D01*
X-109846543Y-144041785D01*
X-109945146Y-144189355D01*
X-110070645Y-144314854D01*
X-110218215Y-144413457D01*
X-110382187Y-144481377D01*
X-110531487Y-144511074D01*
X-110556257Y-144516001D01*
X-110733741Y-144516001D01*
X-110758511Y-144511074D01*
X-110907811Y-144481377D01*
X-111071783Y-144413457D01*
X-111219353Y-144314854D01*
X-111344852Y-144189355D01*
X-111443455Y-144041785D01*
X-111511375Y-143877813D01*
X-111545999Y-143703742D01*
X-111545999Y-143526260D01*
X-111511375Y-143352189D01*
X-111443455Y-143188217D01*
X-111344852Y-143040647D01*
X-111219353Y-142915148D01*
X-111071783Y-142816545D01*
X-110907811Y-142748625D01*
X-110758511Y-142718928D01*
X-110733741Y-142714001D01*
X-110556257Y-142714001D01*
X-110531487Y-142718928D01*
G37*
G36*
X-123983999Y-143146001D02*
G01*
X-125785999Y-143146001D01*
X-125785999Y-141344001D01*
X-123983999Y-141344001D01*
X-123983999Y-143146001D01*
G37*
G36*
X-110531487Y-140178928D02*
G01*
X-110382187Y-140208625D01*
X-110218215Y-140276545D01*
X-110070645Y-140375148D01*
X-109945146Y-140500647D01*
X-109846543Y-140648217D01*
X-109778623Y-140812189D01*
X-109743999Y-140986260D01*
X-109743999Y-141163742D01*
X-109778623Y-141337813D01*
X-109846543Y-141501785D01*
X-109945146Y-141649355D01*
X-110070645Y-141774854D01*
X-110218215Y-141873457D01*
X-110382187Y-141941377D01*
X-110531487Y-141971074D01*
X-110556257Y-141976001D01*
X-110733741Y-141976001D01*
X-110758511Y-141971074D01*
X-110907811Y-141941377D01*
X-111071783Y-141873457D01*
X-111219353Y-141774854D01*
X-111344852Y-141649355D01*
X-111443455Y-141501785D01*
X-111511375Y-141337813D01*
X-111545999Y-141163742D01*
X-111545999Y-140986260D01*
X-111511375Y-140812189D01*
X-111443455Y-140648217D01*
X-111344852Y-140500647D01*
X-111219353Y-140375148D01*
X-111071783Y-140276545D01*
X-110907811Y-140208625D01*
X-110758511Y-140178928D01*
X-110733741Y-140174001D01*
X-110556257Y-140174001D01*
X-110531487Y-140178928D01*
G37*
G36*
X-103729353Y-140496001D02*
G01*
X-105831353Y-140496001D01*
X-105831353Y-138394001D01*
X-103729353Y-138394001D01*
X-103729353Y-140496001D01*
G37*
G36*
X-99473789Y-138434390D02*
G01*
X-99282520Y-138513616D01*
X-99282518Y-138513617D01*
X-99110380Y-138628636D01*
X-98963988Y-138775028D01*
X-98890413Y-138885140D01*
X-98848968Y-138947168D01*
X-98769742Y-139138437D01*
X-98729353Y-139341485D01*
X-98729353Y-139548517D01*
X-98769742Y-139751565D01*
X-98804100Y-139834512D01*
X-98848969Y-139942836D01*
X-98963988Y-140114974D01*
X-99110380Y-140261366D01*
X-99282518Y-140376385D01*
X-99282519Y-140376386D01*
X-99282520Y-140376386D01*
X-99473789Y-140455612D01*
X-99676837Y-140496001D01*
X-99883869Y-140496001D01*
X-100086917Y-140455612D01*
X-100278186Y-140376386D01*
X-100278187Y-140376386D01*
X-100278188Y-140376385D01*
X-100450326Y-140261366D01*
X-100596718Y-140114974D01*
X-100711737Y-139942836D01*
X-100756606Y-139834512D01*
X-100790964Y-139751565D01*
X-100831353Y-139548517D01*
X-100831353Y-139341485D01*
X-100790964Y-139138437D01*
X-100711738Y-138947168D01*
X-100670292Y-138885140D01*
X-100596718Y-138775028D01*
X-100450326Y-138628636D01*
X-100278188Y-138513617D01*
X-100278186Y-138513616D01*
X-100086917Y-138434390D01*
X-99883869Y-138394001D01*
X-99676837Y-138394001D01*
X-99473789Y-138434390D01*
G37*
G36*
X-134523559Y-140096441D02*
G01*
X-139126439Y-140096441D01*
X-139126439Y-135493561D01*
X-134523559Y-135493561D01*
X-134523559Y-140096441D01*
G37*
G36*
X-129803695Y-135582003D02*
G01*
X-129384860Y-135755490D01*
X-129384858Y-135755491D01*
X-129195108Y-135882278D01*
X-129007917Y-136007355D01*
X-128687353Y-136327919D01*
X-128435488Y-136704862D01*
X-128262001Y-137123697D01*
X-128173559Y-137568328D01*
X-128173559Y-138021674D01*
X-128262001Y-138466305D01*
X-128435488Y-138885140D01*
X-128604735Y-139138437D01*
X-128687354Y-139262084D01*
X-129007916Y-139582646D01*
X-129384858Y-139834511D01*
X-129384859Y-139834512D01*
X-129384860Y-139834512D01*
X-129803695Y-140007999D01*
X-130248326Y-140096441D01*
X-130701672Y-140096441D01*
X-131146303Y-140007999D01*
X-131565138Y-139834512D01*
X-131565139Y-139834512D01*
X-131565140Y-139834511D01*
X-131942082Y-139582646D01*
X-132262644Y-139262084D01*
X-132345262Y-139138437D01*
X-132514510Y-138885140D01*
X-132687997Y-138466305D01*
X-132776439Y-138021674D01*
X-132776439Y-137568328D01*
X-132687997Y-137123697D01*
X-132514510Y-136704862D01*
X-132262645Y-136327919D01*
X-131942081Y-136007355D01*
X-131754890Y-135882278D01*
X-131565140Y-135755491D01*
X-131565138Y-135755490D01*
X-131146303Y-135582003D01*
X-130701672Y-135493561D01*
X-130248326Y-135493561D01*
X-129803695Y-135582003D01*
G37*
G36*
X-110531487Y-137638928D02*
G01*
X-110382187Y-137668625D01*
X-110218215Y-137736545D01*
X-110070645Y-137835148D01*
X-109945146Y-137960647D01*
X-109846543Y-138108217D01*
X-109778623Y-138272189D01*
X-109743999Y-138446260D01*
X-109743999Y-138623742D01*
X-109778623Y-138797813D01*
X-109846543Y-138961785D01*
X-109945146Y-139109355D01*
X-110070645Y-139234854D01*
X-110218215Y-139333457D01*
X-110382187Y-139401377D01*
X-110531487Y-139431074D01*
X-110556257Y-139436001D01*
X-110733741Y-139436001D01*
X-110758511Y-139431074D01*
X-110907811Y-139401377D01*
X-111071783Y-139333457D01*
X-111219353Y-139234854D01*
X-111344852Y-139109355D01*
X-111443455Y-138961785D01*
X-111511375Y-138797813D01*
X-111545999Y-138623742D01*
X-111545999Y-138446260D01*
X-111511375Y-138272189D01*
X-111443455Y-138108217D01*
X-111344852Y-137960647D01*
X-111219353Y-137835148D01*
X-111071783Y-137736545D01*
X-110907811Y-137668625D01*
X-110758511Y-137638928D01*
X-110733741Y-137634001D01*
X-110556257Y-137634001D01*
X-110531487Y-137638928D01*
G37*
G36*
X-142693695Y-134532003D02*
G01*
X-142274860Y-134705490D01*
X-142274858Y-134705491D01*
X-142085108Y-134832278D01*
X-141897917Y-134957355D01*
X-141577353Y-135277919D01*
X-141325488Y-135654862D01*
X-141152001Y-136073697D01*
X-141063559Y-136518328D01*
X-141063559Y-136971674D01*
X-141152001Y-137416305D01*
X-141325488Y-137835140D01*
X-141577353Y-138212083D01*
X-141897917Y-138532647D01*
X-142034252Y-138623743D01*
X-142274858Y-138784511D01*
X-142274859Y-138784512D01*
X-142274860Y-138784512D01*
X-142693695Y-138957999D01*
X-143138326Y-139046441D01*
X-143591672Y-139046441D01*
X-144036303Y-138957999D01*
X-144455138Y-138784512D01*
X-144455139Y-138784512D01*
X-144455140Y-138784511D01*
X-144695746Y-138623743D01*
X-144832081Y-138532647D01*
X-145152645Y-138212083D01*
X-145404510Y-137835140D01*
X-145577997Y-137416305D01*
X-145666439Y-136971674D01*
X-145666439Y-136518328D01*
X-145577997Y-136073697D01*
X-145404510Y-135654862D01*
X-145152645Y-135277919D01*
X-144832081Y-134957355D01*
X-144644890Y-134832278D01*
X-144455140Y-134705491D01*
X-144455138Y-134705490D01*
X-144036303Y-134532003D01*
X-143591672Y-134443561D01*
X-143138326Y-134443561D01*
X-142693695Y-134532003D01*
G37*
G36*
X-147413559Y-139046441D02*
G01*
X-152016439Y-139046441D01*
X-152016439Y-134443561D01*
X-147413559Y-134443561D01*
X-147413559Y-139046441D01*
G37*
G36*
X-109743999Y-136896001D02*
G01*
X-111545999Y-136896001D01*
X-111545999Y-135094001D01*
X-109743999Y-135094001D01*
X-109743999Y-136896001D01*
G37*
G36*
X-128113695Y-129032003D02*
G01*
X-127694860Y-129205490D01*
X-127694858Y-129205491D01*
X-127505108Y-129332278D01*
X-127317917Y-129457355D01*
X-126997353Y-129777919D01*
X-126745488Y-130154862D01*
X-126572001Y-130573697D01*
X-126483559Y-131018328D01*
X-126483559Y-131471674D01*
X-126572001Y-131916305D01*
X-126581549Y-131939355D01*
X-126745489Y-132335142D01*
X-126997354Y-132712084D01*
X-127317916Y-133032646D01*
X-127694858Y-133284511D01*
X-127694859Y-133284512D01*
X-127694860Y-133284512D01*
X-128113695Y-133457999D01*
X-128558326Y-133546441D01*
X-129011672Y-133546441D01*
X-129456303Y-133457999D01*
X-129875138Y-133284512D01*
X-129875139Y-133284512D01*
X-129875140Y-133284511D01*
X-130252082Y-133032646D01*
X-130572644Y-132712084D01*
X-130824509Y-132335142D01*
X-130988449Y-131939355D01*
X-130997997Y-131916305D01*
X-131086439Y-131471674D01*
X-131086439Y-131018328D01*
X-130997997Y-130573697D01*
X-130824510Y-130154862D01*
X-130572645Y-129777919D01*
X-130252081Y-129457355D01*
X-130064890Y-129332278D01*
X-129875140Y-129205491D01*
X-129875138Y-129205490D01*
X-129456303Y-129032003D01*
X-129011672Y-128943561D01*
X-128558326Y-128943561D01*
X-128113695Y-129032003D01*
G37*
G36*
X-132833559Y-133546441D02*
G01*
X-137436439Y-133546441D01*
X-137436439Y-128943561D01*
X-132833559Y-128943561D01*
X-132833559Y-133546441D01*
G37*
G36*
X-110191487Y-130468928D02*
G01*
X-110042187Y-130498625D01*
X-109878215Y-130566545D01*
X-109730645Y-130665148D01*
X-109605146Y-130790647D01*
X-109506543Y-130938217D01*
X-109438623Y-131102189D01*
X-109403999Y-131276260D01*
X-109403999Y-131453742D01*
X-109438623Y-131627813D01*
X-109506543Y-131791785D01*
X-109605146Y-131939355D01*
X-109730645Y-132064854D01*
X-109878215Y-132163457D01*
X-110042187Y-132231377D01*
X-110191487Y-132261074D01*
X-110216257Y-132266001D01*
X-110393741Y-132266001D01*
X-110418511Y-132261074D01*
X-110567811Y-132231377D01*
X-110731783Y-132163457D01*
X-110879353Y-132064854D01*
X-111004852Y-131939355D01*
X-111103455Y-131791785D01*
X-111171375Y-131627813D01*
X-111205999Y-131453742D01*
X-111205999Y-131276260D01*
X-111171375Y-131102189D01*
X-111103455Y-130938217D01*
X-111004852Y-130790647D01*
X-110879353Y-130665148D01*
X-110731783Y-130566545D01*
X-110567811Y-130498625D01*
X-110418511Y-130468928D01*
X-110393741Y-130464001D01*
X-110216257Y-130464001D01*
X-110191487Y-130468928D01*
G37*
G36*
X-105541487Y-130468928D02*
G01*
X-105392187Y-130498625D01*
X-105228215Y-130566545D01*
X-105080645Y-130665148D01*
X-104955146Y-130790647D01*
X-104856543Y-130938217D01*
X-104788623Y-131102189D01*
X-104753999Y-131276260D01*
X-104753999Y-131453742D01*
X-104788623Y-131627813D01*
X-104856543Y-131791785D01*
X-104955146Y-131939355D01*
X-105080645Y-132064854D01*
X-105228215Y-132163457D01*
X-105392187Y-132231377D01*
X-105541487Y-132261074D01*
X-105566257Y-132266001D01*
X-105743741Y-132266001D01*
X-105768511Y-132261074D01*
X-105917811Y-132231377D01*
X-106081783Y-132163457D01*
X-106229353Y-132064854D01*
X-106354852Y-131939355D01*
X-106453455Y-131791785D01*
X-106521375Y-131627813D01*
X-106555999Y-131453742D01*
X-106555999Y-131276260D01*
X-106521375Y-131102189D01*
X-106453455Y-130938217D01*
X-106354852Y-130790647D01*
X-106229353Y-130665148D01*
X-106081783Y-130566545D01*
X-105917811Y-130498625D01*
X-105768511Y-130468928D01*
X-105743741Y-130464001D01*
X-105566257Y-130464001D01*
X-105541487Y-130468928D01*
G37*
G36*
X-110191487Y-127928928D02*
G01*
X-110042187Y-127958625D01*
X-109878215Y-128026545D01*
X-109730645Y-128125148D01*
X-109605146Y-128250647D01*
X-109506543Y-128398217D01*
X-109438623Y-128562189D01*
X-109403999Y-128736260D01*
X-109403999Y-128913742D01*
X-109438623Y-129087813D01*
X-109506543Y-129251785D01*
X-109605146Y-129399355D01*
X-109730645Y-129524854D01*
X-109878215Y-129623457D01*
X-110042187Y-129691377D01*
X-110191487Y-129721074D01*
X-110216257Y-129726001D01*
X-110393741Y-129726001D01*
X-110418511Y-129721074D01*
X-110567811Y-129691377D01*
X-110731783Y-129623457D01*
X-110879353Y-129524854D01*
X-111004852Y-129399355D01*
X-111103455Y-129251785D01*
X-111171375Y-129087813D01*
X-111205999Y-128913742D01*
X-111205999Y-128736260D01*
X-111171375Y-128562189D01*
X-111103455Y-128398217D01*
X-111004852Y-128250647D01*
X-110879353Y-128125148D01*
X-110731783Y-128026545D01*
X-110567811Y-127958625D01*
X-110418511Y-127928928D01*
X-110393741Y-127924001D01*
X-110216257Y-127924001D01*
X-110191487Y-127928928D01*
G37*
G36*
X-105541487Y-127928928D02*
G01*
X-105392187Y-127958625D01*
X-105228215Y-128026545D01*
X-105080645Y-128125148D01*
X-104955146Y-128250647D01*
X-104856543Y-128398217D01*
X-104788623Y-128562189D01*
X-104753999Y-128736260D01*
X-104753999Y-128913742D01*
X-104788623Y-129087813D01*
X-104856543Y-129251785D01*
X-104955146Y-129399355D01*
X-105080645Y-129524854D01*
X-105228215Y-129623457D01*
X-105392187Y-129691377D01*
X-105541487Y-129721074D01*
X-105566257Y-129726001D01*
X-105743741Y-129726001D01*
X-105768511Y-129721074D01*
X-105917811Y-129691377D01*
X-106081783Y-129623457D01*
X-106229353Y-129524854D01*
X-106354852Y-129399355D01*
X-106453455Y-129251785D01*
X-106521375Y-129087813D01*
X-106555999Y-128913742D01*
X-106555999Y-128736260D01*
X-106521375Y-128562189D01*
X-106453455Y-128398217D01*
X-106354852Y-128250647D01*
X-106229353Y-128125148D01*
X-106081783Y-128026545D01*
X-105917811Y-127958625D01*
X-105768511Y-127928928D01*
X-105743741Y-127924001D01*
X-105566257Y-127924001D01*
X-105541487Y-127928928D01*
G37*
G36*
X-105541487Y-125388928D02*
G01*
X-105392187Y-125418625D01*
X-105228215Y-125486545D01*
X-105080645Y-125585148D01*
X-104955146Y-125710647D01*
X-104856543Y-125858217D01*
X-104788623Y-126022189D01*
X-104753999Y-126196260D01*
X-104753999Y-126373742D01*
X-104788623Y-126547813D01*
X-104856543Y-126711785D01*
X-104955146Y-126859355D01*
X-105080645Y-126984854D01*
X-105228215Y-127083457D01*
X-105392187Y-127151377D01*
X-105541487Y-127181074D01*
X-105566257Y-127186001D01*
X-105743741Y-127186001D01*
X-105768511Y-127181074D01*
X-105917811Y-127151377D01*
X-106081783Y-127083457D01*
X-106229353Y-126984854D01*
X-106354852Y-126859355D01*
X-106453455Y-126711785D01*
X-106521375Y-126547813D01*
X-106555999Y-126373742D01*
X-106555999Y-126196260D01*
X-106521375Y-126022189D01*
X-106453455Y-125858217D01*
X-106354852Y-125710647D01*
X-106229353Y-125585148D01*
X-106081783Y-125486545D01*
X-105917811Y-125418625D01*
X-105768511Y-125388928D01*
X-105743741Y-125384001D01*
X-105566257Y-125384001D01*
X-105541487Y-125388928D01*
G37*
G36*
X-110191487Y-125388928D02*
G01*
X-110042187Y-125418625D01*
X-109878215Y-125486545D01*
X-109730645Y-125585148D01*
X-109605146Y-125710647D01*
X-109506543Y-125858217D01*
X-109438623Y-126022189D01*
X-109403999Y-126196260D01*
X-109403999Y-126373742D01*
X-109438623Y-126547813D01*
X-109506543Y-126711785D01*
X-109605146Y-126859355D01*
X-109730645Y-126984854D01*
X-109878215Y-127083457D01*
X-110042187Y-127151377D01*
X-110191487Y-127181074D01*
X-110216257Y-127186001D01*
X-110393741Y-127186001D01*
X-110418511Y-127181074D01*
X-110567811Y-127151377D01*
X-110731783Y-127083457D01*
X-110879353Y-126984854D01*
X-111004852Y-126859355D01*
X-111103455Y-126711785D01*
X-111171375Y-126547813D01*
X-111205999Y-126373742D01*
X-111205999Y-126196260D01*
X-111171375Y-126022189D01*
X-111103455Y-125858217D01*
X-111004852Y-125710647D01*
X-110879353Y-125585148D01*
X-110731783Y-125486545D01*
X-110567811Y-125418625D01*
X-110418511Y-125388928D01*
X-110393741Y-125384001D01*
X-110216257Y-125384001D01*
X-110191487Y-125388928D01*
G37*
G36*
X-128113695Y-122482003D02*
G01*
X-127694860Y-122655490D01*
X-127694858Y-122655491D01*
X-127505108Y-122782278D01*
X-127317917Y-122907355D01*
X-126997353Y-123227919D01*
X-126745488Y-123604862D01*
X-126572001Y-124023697D01*
X-126483559Y-124468328D01*
X-126483559Y-124921674D01*
X-126572001Y-125366305D01*
X-126745488Y-125785140D01*
X-126997353Y-126162083D01*
X-127317917Y-126482647D01*
X-127415445Y-126547813D01*
X-127694858Y-126734511D01*
X-127694859Y-126734512D01*
X-127694860Y-126734512D01*
X-128113695Y-126907999D01*
X-128558326Y-126996441D01*
X-129011672Y-126996441D01*
X-129456303Y-126907999D01*
X-129875138Y-126734512D01*
X-129875139Y-126734512D01*
X-129875140Y-126734511D01*
X-130154553Y-126547813D01*
X-130252081Y-126482647D01*
X-130572645Y-126162083D01*
X-130824510Y-125785140D01*
X-130997997Y-125366305D01*
X-131086439Y-124921674D01*
X-131086439Y-124468328D01*
X-130997997Y-124023697D01*
X-130824510Y-123604862D01*
X-130572645Y-123227919D01*
X-130252081Y-122907355D01*
X-130064890Y-122782278D01*
X-129875140Y-122655491D01*
X-129875138Y-122655490D01*
X-129456303Y-122482003D01*
X-129011672Y-122393561D01*
X-128558326Y-122393561D01*
X-128113695Y-122482003D01*
G37*
G36*
X-119943559Y-126996441D02*
G01*
X-124546439Y-126996441D01*
X-124546439Y-122393561D01*
X-119943559Y-122393561D01*
X-119943559Y-126996441D01*
G37*
G36*
X-115223695Y-122482003D02*
G01*
X-114804860Y-122655490D01*
X-114804858Y-122655491D01*
X-114615108Y-122782278D01*
X-114427917Y-122907355D01*
X-114107353Y-123227919D01*
X-113855488Y-123604862D01*
X-113682001Y-124023697D01*
X-113593559Y-124468328D01*
X-113593559Y-124921674D01*
X-113682001Y-125366305D01*
X-113855488Y-125785140D01*
X-114107353Y-126162083D01*
X-114427917Y-126482647D01*
X-114525445Y-126547813D01*
X-114804858Y-126734511D01*
X-114804859Y-126734512D01*
X-114804860Y-126734512D01*
X-115223695Y-126907999D01*
X-115668326Y-126996441D01*
X-116121672Y-126996441D01*
X-116566303Y-126907999D01*
X-116985138Y-126734512D01*
X-116985139Y-126734512D01*
X-116985140Y-126734511D01*
X-117264553Y-126547813D01*
X-117362081Y-126482647D01*
X-117682645Y-126162083D01*
X-117934510Y-125785140D01*
X-118107997Y-125366305D01*
X-118196439Y-124921674D01*
X-118196439Y-124468328D01*
X-118107997Y-124023697D01*
X-117934510Y-123604862D01*
X-117682645Y-123227919D01*
X-117362081Y-122907355D01*
X-117174890Y-122782278D01*
X-116985140Y-122655491D01*
X-116985138Y-122655490D01*
X-116566303Y-122482003D01*
X-116121672Y-122393561D01*
X-115668326Y-122393561D01*
X-115223695Y-122482003D01*
G37*
G36*
X-132833559Y-126996441D02*
G01*
X-137436439Y-126996441D01*
X-137436439Y-122393561D01*
X-132833559Y-122393561D01*
X-132833559Y-126996441D01*
G37*
G36*
X-109403999Y-124646001D02*
G01*
X-111205999Y-124646001D01*
X-111205999Y-122844001D01*
X-109403999Y-122844001D01*
X-109403999Y-124646001D01*
G37*
G36*
X-104753999Y-124646001D02*
G01*
X-106555999Y-124646001D01*
X-106555999Y-122844001D01*
X-104753999Y-122844001D01*
X-104753999Y-124646001D01*
G37*
G36*
X-168241487Y-110148928D02*
G01*
X-168092187Y-110178625D01*
X-167928215Y-110246545D01*
X-167780645Y-110345148D01*
X-167655146Y-110470647D01*
X-167556543Y-110618217D01*
X-167488623Y-110782189D01*
X-167453999Y-110956260D01*
X-167453999Y-111133742D01*
X-167488623Y-111307813D01*
X-167556543Y-111471785D01*
X-167655146Y-111619355D01*
X-167780645Y-111744854D01*
X-167928215Y-111843457D01*
X-168092187Y-111911377D01*
X-168241487Y-111941074D01*
X-168266257Y-111946001D01*
X-168443741Y-111946001D01*
X-168468511Y-111941074D01*
X-168617811Y-111911377D01*
X-168781783Y-111843457D01*
X-168929353Y-111744854D01*
X-169054852Y-111619355D01*
X-169153455Y-111471785D01*
X-169221375Y-111307813D01*
X-169255999Y-111133742D01*
X-169255999Y-110956260D01*
X-169221375Y-110782189D01*
X-169153455Y-110618217D01*
X-169054852Y-110470647D01*
X-168929353Y-110345148D01*
X-168781783Y-110246545D01*
X-168617811Y-110178625D01*
X-168468511Y-110148928D01*
X-168443741Y-110144001D01*
X-168266257Y-110144001D01*
X-168241487Y-110148928D01*
G37*
G36*
X-165701487Y-110148928D02*
G01*
X-165552187Y-110178625D01*
X-165388215Y-110246545D01*
X-165240645Y-110345148D01*
X-165115146Y-110470647D01*
X-165016543Y-110618217D01*
X-164948623Y-110782189D01*
X-164913999Y-110956260D01*
X-164913999Y-111133742D01*
X-164948623Y-111307813D01*
X-165016543Y-111471785D01*
X-165115146Y-111619355D01*
X-165240645Y-111744854D01*
X-165388215Y-111843457D01*
X-165552187Y-111911377D01*
X-165701487Y-111941074D01*
X-165726257Y-111946001D01*
X-165903741Y-111946001D01*
X-165928511Y-111941074D01*
X-166077811Y-111911377D01*
X-166241783Y-111843457D01*
X-166389353Y-111744854D01*
X-166514852Y-111619355D01*
X-166613455Y-111471785D01*
X-166681375Y-111307813D01*
X-166715999Y-111133742D01*
X-166715999Y-110956260D01*
X-166681375Y-110782189D01*
X-166613455Y-110618217D01*
X-166514852Y-110470647D01*
X-166389353Y-110345148D01*
X-166241783Y-110246545D01*
X-166077811Y-110178625D01*
X-165928511Y-110148928D01*
X-165903741Y-110144001D01*
X-165726257Y-110144001D01*
X-165701487Y-110148928D01*
G37*
G36*
X-165701487Y-107608928D02*
G01*
X-165552187Y-107638625D01*
X-165388215Y-107706545D01*
X-165240645Y-107805148D01*
X-165115146Y-107930647D01*
X-165016543Y-108078217D01*
X-164948623Y-108242189D01*
X-164913999Y-108416260D01*
X-164913999Y-108593742D01*
X-164948623Y-108767813D01*
X-165016543Y-108931785D01*
X-165115146Y-109079355D01*
X-165240645Y-109204854D01*
X-165388215Y-109303457D01*
X-165552187Y-109371377D01*
X-165701487Y-109401074D01*
X-165726257Y-109406001D01*
X-165903741Y-109406001D01*
X-165928511Y-109401074D01*
X-166077811Y-109371377D01*
X-166241783Y-109303457D01*
X-166389353Y-109204854D01*
X-166514852Y-109079355D01*
X-166613455Y-108931785D01*
X-166681375Y-108767813D01*
X-166715999Y-108593742D01*
X-166715999Y-108416260D01*
X-166681375Y-108242189D01*
X-166613455Y-108078217D01*
X-166514852Y-107930647D01*
X-166389353Y-107805148D01*
X-166241783Y-107706545D01*
X-166077811Y-107638625D01*
X-165928511Y-107608928D01*
X-165903741Y-107604001D01*
X-165726257Y-107604001D01*
X-165701487Y-107608928D01*
G37*
G36*
X-168241487Y-107608928D02*
G01*
X-168092187Y-107638625D01*
X-167928215Y-107706545D01*
X-167780645Y-107805148D01*
X-167655146Y-107930647D01*
X-167556543Y-108078217D01*
X-167488623Y-108242189D01*
X-167453999Y-108416260D01*
X-167453999Y-108593742D01*
X-167488623Y-108767813D01*
X-167556543Y-108931785D01*
X-167655146Y-109079355D01*
X-167780645Y-109204854D01*
X-167928215Y-109303457D01*
X-168092187Y-109371377D01*
X-168241487Y-109401074D01*
X-168266257Y-109406001D01*
X-168443741Y-109406001D01*
X-168468511Y-109401074D01*
X-168617811Y-109371377D01*
X-168781783Y-109303457D01*
X-168929353Y-109204854D01*
X-169054852Y-109079355D01*
X-169153455Y-108931785D01*
X-169221375Y-108767813D01*
X-169255999Y-108593742D01*
X-169255999Y-108416260D01*
X-169221375Y-108242189D01*
X-169153455Y-108078217D01*
X-169054852Y-107930647D01*
X-168929353Y-107805148D01*
X-168781783Y-107706545D01*
X-168617811Y-107638625D01*
X-168468511Y-107608928D01*
X-168443741Y-107604001D01*
X-168266257Y-107604001D01*
X-168241487Y-107608928D01*
G37*
G36*
X-168241487Y-105068928D02*
G01*
X-168092187Y-105098625D01*
X-167928215Y-105166545D01*
X-167780645Y-105265148D01*
X-167655146Y-105390647D01*
X-167556543Y-105538217D01*
X-167488623Y-105702189D01*
X-167453999Y-105876260D01*
X-167453999Y-106053742D01*
X-167488623Y-106227813D01*
X-167556543Y-106391785D01*
X-167655146Y-106539355D01*
X-167780645Y-106664854D01*
X-167928215Y-106763457D01*
X-168092187Y-106831377D01*
X-168241487Y-106861074D01*
X-168266257Y-106866001D01*
X-168443741Y-106866001D01*
X-168468511Y-106861074D01*
X-168617811Y-106831377D01*
X-168781783Y-106763457D01*
X-168929353Y-106664854D01*
X-169054852Y-106539355D01*
X-169153455Y-106391785D01*
X-169221375Y-106227813D01*
X-169255999Y-106053742D01*
X-169255999Y-105876260D01*
X-169221375Y-105702189D01*
X-169153455Y-105538217D01*
X-169054852Y-105390647D01*
X-168929353Y-105265148D01*
X-168781783Y-105166545D01*
X-168617811Y-105098625D01*
X-168468511Y-105068928D01*
X-168443741Y-105064001D01*
X-168266257Y-105064001D01*
X-168241487Y-105068928D01*
G37*
G36*
X-165701487Y-105068928D02*
G01*
X-165552187Y-105098625D01*
X-165388215Y-105166545D01*
X-165240645Y-105265148D01*
X-165115146Y-105390647D01*
X-165016543Y-105538217D01*
X-164948623Y-105702189D01*
X-164913999Y-105876260D01*
X-164913999Y-106053742D01*
X-164948623Y-106227813D01*
X-165016543Y-106391785D01*
X-165115146Y-106539355D01*
X-165240645Y-106664854D01*
X-165388215Y-106763457D01*
X-165552187Y-106831377D01*
X-165701487Y-106861074D01*
X-165726257Y-106866001D01*
X-165903741Y-106866001D01*
X-165928511Y-106861074D01*
X-166077811Y-106831377D01*
X-166241783Y-106763457D01*
X-166389353Y-106664854D01*
X-166514852Y-106539355D01*
X-166613455Y-106391785D01*
X-166681375Y-106227813D01*
X-166715999Y-106053742D01*
X-166715999Y-105876260D01*
X-166681375Y-105702189D01*
X-166613455Y-105538217D01*
X-166514852Y-105390647D01*
X-166389353Y-105265148D01*
X-166241783Y-105166545D01*
X-166077811Y-105098625D01*
X-165928511Y-105068928D01*
X-165903741Y-105064001D01*
X-165726257Y-105064001D01*
X-165701487Y-105068928D01*
G37*
G36*
X-168241487Y-102528928D02*
G01*
X-168092187Y-102558625D01*
X-167928215Y-102626545D01*
X-167780645Y-102725148D01*
X-167655146Y-102850647D01*
X-167556543Y-102998217D01*
X-167488623Y-103162189D01*
X-167453999Y-103336260D01*
X-167453999Y-103513742D01*
X-167488623Y-103687813D01*
X-167556543Y-103851785D01*
X-167655146Y-103999355D01*
X-167780645Y-104124854D01*
X-167928215Y-104223457D01*
X-168092187Y-104291377D01*
X-168241487Y-104321074D01*
X-168266257Y-104326001D01*
X-168443741Y-104326001D01*
X-168468511Y-104321074D01*
X-168617811Y-104291377D01*
X-168781783Y-104223457D01*
X-168929353Y-104124854D01*
X-169054852Y-103999355D01*
X-169153455Y-103851785D01*
X-169221375Y-103687813D01*
X-169255999Y-103513742D01*
X-169255999Y-103336260D01*
X-169221375Y-103162189D01*
X-169153455Y-102998217D01*
X-169054852Y-102850647D01*
X-168929353Y-102725148D01*
X-168781783Y-102626545D01*
X-168617811Y-102558625D01*
X-168468511Y-102528928D01*
X-168443741Y-102524001D01*
X-168266257Y-102524001D01*
X-168241487Y-102528928D01*
G37*
G36*
X-165701487Y-102528928D02*
G01*
X-165552187Y-102558625D01*
X-165388215Y-102626545D01*
X-165240645Y-102725148D01*
X-165115146Y-102850647D01*
X-165016543Y-102998217D01*
X-164948623Y-103162189D01*
X-164913999Y-103336260D01*
X-164913999Y-103513742D01*
X-164948623Y-103687813D01*
X-165016543Y-103851785D01*
X-165115146Y-103999355D01*
X-165240645Y-104124854D01*
X-165388215Y-104223457D01*
X-165552187Y-104291377D01*
X-165701487Y-104321074D01*
X-165726257Y-104326001D01*
X-165903741Y-104326001D01*
X-165928511Y-104321074D01*
X-166077811Y-104291377D01*
X-166241783Y-104223457D01*
X-166389353Y-104124854D01*
X-166514852Y-103999355D01*
X-166613455Y-103851785D01*
X-166681375Y-103687813D01*
X-166715999Y-103513742D01*
X-166715999Y-103336260D01*
X-166681375Y-103162189D01*
X-166613455Y-102998217D01*
X-166514852Y-102850647D01*
X-166389353Y-102725148D01*
X-166241783Y-102626545D01*
X-166077811Y-102558625D01*
X-165928511Y-102528928D01*
X-165903741Y-102524001D01*
X-165726257Y-102524001D01*
X-165701487Y-102528928D01*
G37*
G36*
X-168241487Y-99988928D02*
G01*
X-168092187Y-100018625D01*
X-167928215Y-100086545D01*
X-167780645Y-100185148D01*
X-167655146Y-100310647D01*
X-167556543Y-100458217D01*
X-167488623Y-100622189D01*
X-167453999Y-100796260D01*
X-167453999Y-100973742D01*
X-167488623Y-101147813D01*
X-167556543Y-101311785D01*
X-167655146Y-101459355D01*
X-167780645Y-101584854D01*
X-167928215Y-101683457D01*
X-168092187Y-101751377D01*
X-168241487Y-101781074D01*
X-168266257Y-101786001D01*
X-168443741Y-101786001D01*
X-168468511Y-101781074D01*
X-168617811Y-101751377D01*
X-168781783Y-101683457D01*
X-168929353Y-101584854D01*
X-169054852Y-101459355D01*
X-169153455Y-101311785D01*
X-169221375Y-101147813D01*
X-169255999Y-100973742D01*
X-169255999Y-100796260D01*
X-169221375Y-100622189D01*
X-169153455Y-100458217D01*
X-169054852Y-100310647D01*
X-168929353Y-100185148D01*
X-168781783Y-100086545D01*
X-168617811Y-100018625D01*
X-168468511Y-99988928D01*
X-168443741Y-99984001D01*
X-168266257Y-99984001D01*
X-168241487Y-99988928D01*
G37*
G36*
X-165701487Y-99988928D02*
G01*
X-165552187Y-100018625D01*
X-165388215Y-100086545D01*
X-165240645Y-100185148D01*
X-165115146Y-100310647D01*
X-165016543Y-100458217D01*
X-164948623Y-100622189D01*
X-164913999Y-100796260D01*
X-164913999Y-100973742D01*
X-164948623Y-101147813D01*
X-165016543Y-101311785D01*
X-165115146Y-101459355D01*
X-165240645Y-101584854D01*
X-165388215Y-101683457D01*
X-165552187Y-101751377D01*
X-165701487Y-101781074D01*
X-165726257Y-101786001D01*
X-165903741Y-101786001D01*
X-165928511Y-101781074D01*
X-166077811Y-101751377D01*
X-166241783Y-101683457D01*
X-166389353Y-101584854D01*
X-166514852Y-101459355D01*
X-166613455Y-101311785D01*
X-166681375Y-101147813D01*
X-166715999Y-100973742D01*
X-166715999Y-100796260D01*
X-166681375Y-100622189D01*
X-166613455Y-100458217D01*
X-166514852Y-100310647D01*
X-166389353Y-100185148D01*
X-166241783Y-100086545D01*
X-166077811Y-100018625D01*
X-165928511Y-99988928D01*
X-165903741Y-99984001D01*
X-165726257Y-99984001D01*
X-165701487Y-99988928D01*
G37*
G36*
X-165701487Y-97448928D02*
G01*
X-165552187Y-97478625D01*
X-165388215Y-97546545D01*
X-165240645Y-97645148D01*
X-165115146Y-97770647D01*
X-165016543Y-97918217D01*
X-164948623Y-98082189D01*
X-164913999Y-98256260D01*
X-164913999Y-98433742D01*
X-164948623Y-98607813D01*
X-165016543Y-98771785D01*
X-165115146Y-98919355D01*
X-165240645Y-99044854D01*
X-165388215Y-99143457D01*
X-165552187Y-99211377D01*
X-165701487Y-99241074D01*
X-165726257Y-99246001D01*
X-165903741Y-99246001D01*
X-165928511Y-99241074D01*
X-166077811Y-99211377D01*
X-166241783Y-99143457D01*
X-166389353Y-99044854D01*
X-166514852Y-98919355D01*
X-166613455Y-98771785D01*
X-166681375Y-98607813D01*
X-166715999Y-98433742D01*
X-166715999Y-98256260D01*
X-166681375Y-98082189D01*
X-166613455Y-97918217D01*
X-166514852Y-97770647D01*
X-166389353Y-97645148D01*
X-166241783Y-97546545D01*
X-166077811Y-97478625D01*
X-165928511Y-97448928D01*
X-165903741Y-97444001D01*
X-165726257Y-97444001D01*
X-165701487Y-97448928D01*
G37*
G36*
X-168241487Y-97448928D02*
G01*
X-168092187Y-97478625D01*
X-167928215Y-97546545D01*
X-167780645Y-97645148D01*
X-167655146Y-97770647D01*
X-167556543Y-97918217D01*
X-167488623Y-98082189D01*
X-167453999Y-98256260D01*
X-167453999Y-98433742D01*
X-167488623Y-98607813D01*
X-167556543Y-98771785D01*
X-167655146Y-98919355D01*
X-167780645Y-99044854D01*
X-167928215Y-99143457D01*
X-168092187Y-99211377D01*
X-168241487Y-99241074D01*
X-168266257Y-99246001D01*
X-168443741Y-99246001D01*
X-168468511Y-99241074D01*
X-168617811Y-99211377D01*
X-168781783Y-99143457D01*
X-168929353Y-99044854D01*
X-169054852Y-98919355D01*
X-169153455Y-98771785D01*
X-169221375Y-98607813D01*
X-169255999Y-98433742D01*
X-169255999Y-98256260D01*
X-169221375Y-98082189D01*
X-169153455Y-97918217D01*
X-169054852Y-97770647D01*
X-168929353Y-97645148D01*
X-168781783Y-97546545D01*
X-168617811Y-97478625D01*
X-168468511Y-97448928D01*
X-168443741Y-97444001D01*
X-168266257Y-97444001D01*
X-168241487Y-97448928D01*
G37*
G36*
X99366564Y-95429389D02*
G01*
X99557833Y-95508615D01*
X99557835Y-95508616D01*
X99608082Y-95542190D01*
X99729973Y-95623635D01*
X99876365Y-95770027D01*
X99991385Y-95942167D01*
X100070611Y-96133436D01*
X100111000Y-96336484D01*
X100111000Y-96543516D01*
X100070611Y-96746564D01*
X99991385Y-96937833D01*
X99991384Y-96937835D01*
X99876365Y-97109973D01*
X99729973Y-97256365D01*
X99557835Y-97371384D01*
X99557834Y-97371385D01*
X99557833Y-97371385D01*
X99366564Y-97450611D01*
X99163516Y-97491000D01*
X98956484Y-97491000D01*
X98753436Y-97450611D01*
X98562167Y-97371385D01*
X98562166Y-97371385D01*
X98562165Y-97371384D01*
X98390027Y-97256365D01*
X98243635Y-97109973D01*
X98128616Y-96937835D01*
X98128615Y-96937833D01*
X98049389Y-96746564D01*
X98009000Y-96543516D01*
X98009000Y-96336484D01*
X98049389Y-96133436D01*
X98128615Y-95942167D01*
X98243635Y-95770027D01*
X98390027Y-95623635D01*
X98511918Y-95542190D01*
X98562165Y-95508616D01*
X98562167Y-95508615D01*
X98753436Y-95429389D01*
X98956484Y-95389000D01*
X99163516Y-95389000D01*
X99366564Y-95429389D01*
G37*
G36*
X-168241487Y-94908928D02*
G01*
X-168092187Y-94938625D01*
X-167928215Y-95006545D01*
X-167780645Y-95105148D01*
X-167655146Y-95230647D01*
X-167556543Y-95378217D01*
X-167488623Y-95542189D01*
X-167453999Y-95716260D01*
X-167453999Y-95893742D01*
X-167488623Y-96067813D01*
X-167556543Y-96231785D01*
X-167655146Y-96379355D01*
X-167780645Y-96504854D01*
X-167928215Y-96603457D01*
X-168092187Y-96671377D01*
X-168241487Y-96701074D01*
X-168266257Y-96706001D01*
X-168443741Y-96706001D01*
X-168468511Y-96701074D01*
X-168617811Y-96671377D01*
X-168781783Y-96603457D01*
X-168929353Y-96504854D01*
X-169054852Y-96379355D01*
X-169153455Y-96231785D01*
X-169221375Y-96067813D01*
X-169255999Y-95893742D01*
X-169255999Y-95716260D01*
X-169221375Y-95542189D01*
X-169153455Y-95378217D01*
X-169054852Y-95230647D01*
X-168929353Y-95105148D01*
X-168781783Y-95006545D01*
X-168617811Y-94938625D01*
X-168468511Y-94908928D01*
X-168443741Y-94904001D01*
X-168266257Y-94904001D01*
X-168241487Y-94908928D01*
G37*
G36*
X-165701487Y-94908928D02*
G01*
X-165552187Y-94938625D01*
X-165388215Y-95006545D01*
X-165240645Y-95105148D01*
X-165115146Y-95230647D01*
X-165016543Y-95378217D01*
X-164948623Y-95542189D01*
X-164913999Y-95716260D01*
X-164913999Y-95893742D01*
X-164948623Y-96067813D01*
X-165016543Y-96231785D01*
X-165115146Y-96379355D01*
X-165240645Y-96504854D01*
X-165388215Y-96603457D01*
X-165552187Y-96671377D01*
X-165701487Y-96701074D01*
X-165726257Y-96706001D01*
X-165903741Y-96706001D01*
X-165928511Y-96701074D01*
X-166077811Y-96671377D01*
X-166241783Y-96603457D01*
X-166389353Y-96504854D01*
X-166514852Y-96379355D01*
X-166613455Y-96231785D01*
X-166681375Y-96067813D01*
X-166715999Y-95893742D01*
X-166715999Y-95716260D01*
X-166681375Y-95542189D01*
X-166613455Y-95378217D01*
X-166514852Y-95230647D01*
X-166389353Y-95105148D01*
X-166241783Y-95006545D01*
X-166077811Y-94938625D01*
X-165928511Y-94908928D01*
X-165903741Y-94904001D01*
X-165726257Y-94904001D01*
X-165701487Y-94908928D01*
G37*
G36*
X-165701487Y-92368928D02*
G01*
X-165552187Y-92398625D01*
X-165388215Y-92466545D01*
X-165240645Y-92565148D01*
X-165115146Y-92690647D01*
X-165016543Y-92838217D01*
X-164948623Y-93002189D01*
X-164913999Y-93176260D01*
X-164913999Y-93353742D01*
X-164948623Y-93527813D01*
X-165016543Y-93691785D01*
X-165115146Y-93839355D01*
X-165240645Y-93964854D01*
X-165388215Y-94063457D01*
X-165552187Y-94131377D01*
X-165701487Y-94161074D01*
X-165726257Y-94166001D01*
X-165903741Y-94166001D01*
X-165928511Y-94161074D01*
X-166077811Y-94131377D01*
X-166241783Y-94063457D01*
X-166389353Y-93964854D01*
X-166514852Y-93839355D01*
X-166613455Y-93691785D01*
X-166681375Y-93527813D01*
X-166715999Y-93353742D01*
X-166715999Y-93176260D01*
X-166681375Y-93002189D01*
X-166613455Y-92838217D01*
X-166514852Y-92690647D01*
X-166389353Y-92565148D01*
X-166241783Y-92466545D01*
X-166077811Y-92398625D01*
X-165928511Y-92368928D01*
X-165903741Y-92364001D01*
X-165726257Y-92364001D01*
X-165701487Y-92368928D01*
G37*
G36*
X-168241487Y-92368928D02*
G01*
X-168092187Y-92398625D01*
X-167928215Y-92466545D01*
X-167780645Y-92565148D01*
X-167655146Y-92690647D01*
X-167556543Y-92838217D01*
X-167488623Y-93002189D01*
X-167453999Y-93176260D01*
X-167453999Y-93353742D01*
X-167488623Y-93527813D01*
X-167556543Y-93691785D01*
X-167655146Y-93839355D01*
X-167780645Y-93964854D01*
X-167928215Y-94063457D01*
X-168092187Y-94131377D01*
X-168241487Y-94161074D01*
X-168266257Y-94166001D01*
X-168443741Y-94166001D01*
X-168468511Y-94161074D01*
X-168617811Y-94131377D01*
X-168781783Y-94063457D01*
X-168929353Y-93964854D01*
X-169054852Y-93839355D01*
X-169153455Y-93691785D01*
X-169221375Y-93527813D01*
X-169255999Y-93353742D01*
X-169255999Y-93176260D01*
X-169221375Y-93002189D01*
X-169153455Y-92838217D01*
X-169054852Y-92690647D01*
X-168929353Y-92565148D01*
X-168781783Y-92466545D01*
X-168617811Y-92398625D01*
X-168468511Y-92368928D01*
X-168443741Y-92364001D01*
X-168266257Y-92364001D01*
X-168241487Y-92368928D01*
G37*
G36*
X-25703999Y-93686001D02*
G01*
X-27505999Y-93686001D01*
X-27505999Y-91884001D01*
X-25703999Y-91884001D01*
X-25703999Y-93686001D01*
G37*
G36*
X-61503999Y-93286001D02*
G01*
X-63305999Y-93286001D01*
X-63305999Y-91484001D01*
X-61503999Y-91484001D01*
X-61503999Y-93286001D01*
G37*
G36*
X100111000Y-92491000D02*
G01*
X98009000Y-92491000D01*
X98009000Y-90389000D01*
X100111000Y-90389000D01*
X100111000Y-92491000D01*
G37*
G36*
X-168241487Y-89828928D02*
G01*
X-168092187Y-89858625D01*
X-167928215Y-89926545D01*
X-167780645Y-90025148D01*
X-167655146Y-90150647D01*
X-167556543Y-90298217D01*
X-167488623Y-90462189D01*
X-167453999Y-90636260D01*
X-167453999Y-90813742D01*
X-167488623Y-90987813D01*
X-167556543Y-91151785D01*
X-167655146Y-91299355D01*
X-167780645Y-91424854D01*
X-167928215Y-91523457D01*
X-168092187Y-91591377D01*
X-168241487Y-91621074D01*
X-168266257Y-91626001D01*
X-168443741Y-91626001D01*
X-168468511Y-91621074D01*
X-168617811Y-91591377D01*
X-168781783Y-91523457D01*
X-168929353Y-91424854D01*
X-169054852Y-91299355D01*
X-169153455Y-91151785D01*
X-169221375Y-90987813D01*
X-169255999Y-90813742D01*
X-169255999Y-90636260D01*
X-169221375Y-90462189D01*
X-169153455Y-90298217D01*
X-169054852Y-90150647D01*
X-168929353Y-90025148D01*
X-168781783Y-89926545D01*
X-168617811Y-89858625D01*
X-168468511Y-89828928D01*
X-168443741Y-89824001D01*
X-168266257Y-89824001D01*
X-168241487Y-89828928D01*
G37*
G36*
X-165701487Y-89828928D02*
G01*
X-165552187Y-89858625D01*
X-165388215Y-89926545D01*
X-165240645Y-90025148D01*
X-165115146Y-90150647D01*
X-165016543Y-90298217D01*
X-164948623Y-90462189D01*
X-164913999Y-90636260D01*
X-164913999Y-90813742D01*
X-164948623Y-90987813D01*
X-165016543Y-91151785D01*
X-165115146Y-91299355D01*
X-165240645Y-91424854D01*
X-165388215Y-91523457D01*
X-165552187Y-91591377D01*
X-165701487Y-91621074D01*
X-165726257Y-91626001D01*
X-165903741Y-91626001D01*
X-165928511Y-91621074D01*
X-166077811Y-91591377D01*
X-166241783Y-91523457D01*
X-166389353Y-91424854D01*
X-166514852Y-91299355D01*
X-166613455Y-91151785D01*
X-166681375Y-90987813D01*
X-166715999Y-90813742D01*
X-166715999Y-90636260D01*
X-166681375Y-90462189D01*
X-166613455Y-90298217D01*
X-166514852Y-90150647D01*
X-166389353Y-90025148D01*
X-166241783Y-89926545D01*
X-166077811Y-89858625D01*
X-165928511Y-89828928D01*
X-165903741Y-89824001D01*
X-165726257Y-89824001D01*
X-165701487Y-89828928D01*
G37*
G36*
X-165701487Y-87288928D02*
G01*
X-165552187Y-87318625D01*
X-165388215Y-87386545D01*
X-165240645Y-87485148D01*
X-165115146Y-87610647D01*
X-165016543Y-87758217D01*
X-164948623Y-87922189D01*
X-164913999Y-88096260D01*
X-164913999Y-88273742D01*
X-164948623Y-88447813D01*
X-165016543Y-88611785D01*
X-165115146Y-88759355D01*
X-165240645Y-88884854D01*
X-165388215Y-88983457D01*
X-165552187Y-89051377D01*
X-165701487Y-89081074D01*
X-165726257Y-89086001D01*
X-165903741Y-89086001D01*
X-165928511Y-89081074D01*
X-166077811Y-89051377D01*
X-166241783Y-88983457D01*
X-166389353Y-88884854D01*
X-166514852Y-88759355D01*
X-166613455Y-88611785D01*
X-166681375Y-88447813D01*
X-166715999Y-88273742D01*
X-166715999Y-88096260D01*
X-166681375Y-87922189D01*
X-166613455Y-87758217D01*
X-166514852Y-87610647D01*
X-166389353Y-87485148D01*
X-166241783Y-87386545D01*
X-166077811Y-87318625D01*
X-165928511Y-87288928D01*
X-165903741Y-87284001D01*
X-165726257Y-87284001D01*
X-165701487Y-87288928D01*
G37*
G36*
X-168241487Y-87288928D02*
G01*
X-168092187Y-87318625D01*
X-167928215Y-87386545D01*
X-167780645Y-87485148D01*
X-167655146Y-87610647D01*
X-167556543Y-87758217D01*
X-167488623Y-87922189D01*
X-167453999Y-88096260D01*
X-167453999Y-88273742D01*
X-167488623Y-88447813D01*
X-167556543Y-88611785D01*
X-167655146Y-88759355D01*
X-167780645Y-88884854D01*
X-167928215Y-88983457D01*
X-168092187Y-89051377D01*
X-168241487Y-89081074D01*
X-168266257Y-89086001D01*
X-168443741Y-89086001D01*
X-168468511Y-89081074D01*
X-168617811Y-89051377D01*
X-168781783Y-88983457D01*
X-168929353Y-88884854D01*
X-169054852Y-88759355D01*
X-169153455Y-88611785D01*
X-169221375Y-88447813D01*
X-169255999Y-88273742D01*
X-169255999Y-88096260D01*
X-169221375Y-87922189D01*
X-169153455Y-87758217D01*
X-169054852Y-87610647D01*
X-168929353Y-87485148D01*
X-168781783Y-87386545D01*
X-168617811Y-87318625D01*
X-168468511Y-87288928D01*
X-168443741Y-87284001D01*
X-168266257Y-87284001D01*
X-168241487Y-87288928D01*
G37*
G36*
X-62291487Y-86848928D02*
G01*
X-62142187Y-86878625D01*
X-61978215Y-86946545D01*
X-61830645Y-87045148D01*
X-61705146Y-87170647D01*
X-61606543Y-87318217D01*
X-61538623Y-87482189D01*
X-61503999Y-87656260D01*
X-61503999Y-87833742D01*
X-61538623Y-88007813D01*
X-61606543Y-88171785D01*
X-61705146Y-88319355D01*
X-61830645Y-88444854D01*
X-61978215Y-88543457D01*
X-62142187Y-88611377D01*
X-62291487Y-88641074D01*
X-62316257Y-88646001D01*
X-62493741Y-88646001D01*
X-62518511Y-88641074D01*
X-62667811Y-88611377D01*
X-62831783Y-88543457D01*
X-62979353Y-88444854D01*
X-63104852Y-88319355D01*
X-63203455Y-88171785D01*
X-63271375Y-88007813D01*
X-63305999Y-87833742D01*
X-63305999Y-87656260D01*
X-63271375Y-87482189D01*
X-63203455Y-87318217D01*
X-63104852Y-87170647D01*
X-62979353Y-87045148D01*
X-62831783Y-86946545D01*
X-62667811Y-86878625D01*
X-62518511Y-86848928D01*
X-62493741Y-86844001D01*
X-62316257Y-86844001D01*
X-62291487Y-86848928D01*
G37*
G36*
X-20953999Y-88536001D02*
G01*
X-22755999Y-88536001D01*
X-22755999Y-86734001D01*
X-20953999Y-86734001D01*
X-20953999Y-88536001D01*
G37*
G36*
X-168241487Y-84748928D02*
G01*
X-168092187Y-84778625D01*
X-167928215Y-84846545D01*
X-167780645Y-84945148D01*
X-167655146Y-85070647D01*
X-167556543Y-85218217D01*
X-167488623Y-85382189D01*
X-167453999Y-85556260D01*
X-167453999Y-85733742D01*
X-167488623Y-85907813D01*
X-167556543Y-86071785D01*
X-167655146Y-86219355D01*
X-167780645Y-86344854D01*
X-167928215Y-86443457D01*
X-168092187Y-86511377D01*
X-168241487Y-86541074D01*
X-168266257Y-86546001D01*
X-168443741Y-86546001D01*
X-168468511Y-86541074D01*
X-168617811Y-86511377D01*
X-168781783Y-86443457D01*
X-168929353Y-86344854D01*
X-169054852Y-86219355D01*
X-169153455Y-86071785D01*
X-169221375Y-85907813D01*
X-169255999Y-85733742D01*
X-169255999Y-85556260D01*
X-169221375Y-85382189D01*
X-169153455Y-85218217D01*
X-169054852Y-85070647D01*
X-168929353Y-84945148D01*
X-168781783Y-84846545D01*
X-168617811Y-84778625D01*
X-168468511Y-84748928D01*
X-168443741Y-84744001D01*
X-168266257Y-84744001D01*
X-168241487Y-84748928D01*
G37*
G36*
X-165701487Y-84748928D02*
G01*
X-165552187Y-84778625D01*
X-165388215Y-84846545D01*
X-165240645Y-84945148D01*
X-165115146Y-85070647D01*
X-165016543Y-85218217D01*
X-164948623Y-85382189D01*
X-164913999Y-85556260D01*
X-164913999Y-85733742D01*
X-164948623Y-85907813D01*
X-165016543Y-86071785D01*
X-165115146Y-86219355D01*
X-165240645Y-86344854D01*
X-165388215Y-86443457D01*
X-165552187Y-86511377D01*
X-165701487Y-86541074D01*
X-165726257Y-86546001D01*
X-165903741Y-86546001D01*
X-165928511Y-86541074D01*
X-166077811Y-86511377D01*
X-166241783Y-86443457D01*
X-166389353Y-86344854D01*
X-166514852Y-86219355D01*
X-166613455Y-86071785D01*
X-166681375Y-85907813D01*
X-166715999Y-85733742D01*
X-166715999Y-85556260D01*
X-166681375Y-85382189D01*
X-166613455Y-85218217D01*
X-166514852Y-85070647D01*
X-166389353Y-84945148D01*
X-166241783Y-84846545D01*
X-166077811Y-84778625D01*
X-165928511Y-84748928D01*
X-165903741Y-84744001D01*
X-165726257Y-84744001D01*
X-165701487Y-84748928D01*
G37*
G36*
X-62291487Y-84308928D02*
G01*
X-62142187Y-84338625D01*
X-61978215Y-84406545D01*
X-61830645Y-84505148D01*
X-61705146Y-84630647D01*
X-61606543Y-84778217D01*
X-61538623Y-84942189D01*
X-61503999Y-85116260D01*
X-61503999Y-85293742D01*
X-61538623Y-85467813D01*
X-61606543Y-85631785D01*
X-61705146Y-85779355D01*
X-61830645Y-85904854D01*
X-61978215Y-86003457D01*
X-62142187Y-86071377D01*
X-62291487Y-86101074D01*
X-62316257Y-86106001D01*
X-62493741Y-86106001D01*
X-62518511Y-86101074D01*
X-62667811Y-86071377D01*
X-62831783Y-86003457D01*
X-62979353Y-85904854D01*
X-63104852Y-85779355D01*
X-63203455Y-85631785D01*
X-63271375Y-85467813D01*
X-63305999Y-85293742D01*
X-63305999Y-85116260D01*
X-63271375Y-84942189D01*
X-63203455Y-84778217D01*
X-63104852Y-84630647D01*
X-62979353Y-84505148D01*
X-62831783Y-84406545D01*
X-62667811Y-84338625D01*
X-62518511Y-84308928D01*
X-62493741Y-84304001D01*
X-62316257Y-84304001D01*
X-62291487Y-84308928D01*
G37*
G36*
X-31315109Y-83949018D02*
G01*
X-31261132Y-83971376D01*
X-31196635Y-83998092D01*
X-31090011Y-84069336D01*
X-30999334Y-84160013D01*
X-30928089Y-84266639D01*
X-30879016Y-84385111D01*
X-30853999Y-84510882D01*
X-30853999Y-84639120D01*
X-30879016Y-84764891D01*
X-30912838Y-84846545D01*
X-30928090Y-84883365D01*
X-30999334Y-84989989D01*
X-31090011Y-85080666D01*
X-31196635Y-85151910D01*
X-31196636Y-85151911D01*
X-31196637Y-85151911D01*
X-31315109Y-85200984D01*
X-31440880Y-85226001D01*
X-31569118Y-85226001D01*
X-31694889Y-85200984D01*
X-31813361Y-85151911D01*
X-31813362Y-85151911D01*
X-31813363Y-85151910D01*
X-31919987Y-85080666D01*
X-32010664Y-84989989D01*
X-32081908Y-84883365D01*
X-32097159Y-84846545D01*
X-32130982Y-84764891D01*
X-32155999Y-84639120D01*
X-32155999Y-84510882D01*
X-32130982Y-84385111D01*
X-32081909Y-84266639D01*
X-32010664Y-84160013D01*
X-31919987Y-84069336D01*
X-31813363Y-83998092D01*
X-31748865Y-83971376D01*
X-31694889Y-83949018D01*
X-31569118Y-83924001D01*
X-31440880Y-83924001D01*
X-31315109Y-83949018D01*
G37*
G36*
X-42265109Y-83949018D02*
G01*
X-42211132Y-83971376D01*
X-42146635Y-83998092D01*
X-42040011Y-84069336D01*
X-41949334Y-84160013D01*
X-41878089Y-84266639D01*
X-41829016Y-84385111D01*
X-41803999Y-84510882D01*
X-41803999Y-84639120D01*
X-41829016Y-84764891D01*
X-41862838Y-84846545D01*
X-41878090Y-84883365D01*
X-41949334Y-84989989D01*
X-42040011Y-85080666D01*
X-42146635Y-85151910D01*
X-42146636Y-85151911D01*
X-42146637Y-85151911D01*
X-42265109Y-85200984D01*
X-42390880Y-85226001D01*
X-42519118Y-85226001D01*
X-42644889Y-85200984D01*
X-42763361Y-85151911D01*
X-42763362Y-85151911D01*
X-42763363Y-85151910D01*
X-42869987Y-85080666D01*
X-42960664Y-84989989D01*
X-43031908Y-84883365D01*
X-43047159Y-84846545D01*
X-43080982Y-84764891D01*
X-43105999Y-84639120D01*
X-43105999Y-84510882D01*
X-43080982Y-84385111D01*
X-43031909Y-84266639D01*
X-42960664Y-84160013D01*
X-42869987Y-84069336D01*
X-42763363Y-83998092D01*
X-42698865Y-83971376D01*
X-42644889Y-83949018D01*
X-42519118Y-83924001D01*
X-42390880Y-83924001D01*
X-42265109Y-83949018D01*
G37*
G36*
X-165701487Y-82208928D02*
G01*
X-165552187Y-82238625D01*
X-165388215Y-82306545D01*
X-165240645Y-82405148D01*
X-165115146Y-82530647D01*
X-165016543Y-82678217D01*
X-164948623Y-82842189D01*
X-164913999Y-83016260D01*
X-164913999Y-83193742D01*
X-164948623Y-83367813D01*
X-165016543Y-83531785D01*
X-165115146Y-83679355D01*
X-165240645Y-83804854D01*
X-165388215Y-83903457D01*
X-165552187Y-83971377D01*
X-165686491Y-83998091D01*
X-165726257Y-84006001D01*
X-165903741Y-84006001D01*
X-165943507Y-83998091D01*
X-166077811Y-83971377D01*
X-166241783Y-83903457D01*
X-166389353Y-83804854D01*
X-166514852Y-83679355D01*
X-166613455Y-83531785D01*
X-166681375Y-83367813D01*
X-166715999Y-83193742D01*
X-166715999Y-83016260D01*
X-166681375Y-82842189D01*
X-166613455Y-82678217D01*
X-166514852Y-82530647D01*
X-166389353Y-82405148D01*
X-166241783Y-82306545D01*
X-166077811Y-82238625D01*
X-165928511Y-82208928D01*
X-165903741Y-82204001D01*
X-165726257Y-82204001D01*
X-165701487Y-82208928D01*
G37*
G36*
X-168241487Y-82208928D02*
G01*
X-168092187Y-82238625D01*
X-167928215Y-82306545D01*
X-167780645Y-82405148D01*
X-167655146Y-82530647D01*
X-167556543Y-82678217D01*
X-167488623Y-82842189D01*
X-167453999Y-83016260D01*
X-167453999Y-83193742D01*
X-167488623Y-83367813D01*
X-167556543Y-83531785D01*
X-167655146Y-83679355D01*
X-167780645Y-83804854D01*
X-167928215Y-83903457D01*
X-168092187Y-83971377D01*
X-168226491Y-83998091D01*
X-168266257Y-84006001D01*
X-168443741Y-84006001D01*
X-168483507Y-83998091D01*
X-168617811Y-83971377D01*
X-168781783Y-83903457D01*
X-168929353Y-83804854D01*
X-169054852Y-83679355D01*
X-169153455Y-83531785D01*
X-169221375Y-83367813D01*
X-169255999Y-83193742D01*
X-169255999Y-83016260D01*
X-169221375Y-82842189D01*
X-169153455Y-82678217D01*
X-169054852Y-82530647D01*
X-168929353Y-82405148D01*
X-168781783Y-82306545D01*
X-168617811Y-82238625D01*
X-168468511Y-82208928D01*
X-168443741Y-82204001D01*
X-168266257Y-82204001D01*
X-168241487Y-82208928D01*
G37*
G36*
X-62291487Y-81768928D02*
G01*
X-62142187Y-81798625D01*
X-61978215Y-81866545D01*
X-61830645Y-81965148D01*
X-61705146Y-82090647D01*
X-61606543Y-82238217D01*
X-61538623Y-82402189D01*
X-61503999Y-82576260D01*
X-61503999Y-82753742D01*
X-61538623Y-82927813D01*
X-61606543Y-83091785D01*
X-61705146Y-83239355D01*
X-61830645Y-83364854D01*
X-61978215Y-83463457D01*
X-62142187Y-83531377D01*
X-62291487Y-83561074D01*
X-62316257Y-83566001D01*
X-62493741Y-83566001D01*
X-62518511Y-83561074D01*
X-62667811Y-83531377D01*
X-62831783Y-83463457D01*
X-62979353Y-83364854D01*
X-63104852Y-83239355D01*
X-63203455Y-83091785D01*
X-63271375Y-82927813D01*
X-63305999Y-82753742D01*
X-63305999Y-82576260D01*
X-63271375Y-82402189D01*
X-63203455Y-82238217D01*
X-63104852Y-82090647D01*
X-62979353Y-81965148D01*
X-62831783Y-81866545D01*
X-62667811Y-81798625D01*
X-62518511Y-81768928D01*
X-62493741Y-81764001D01*
X-62316257Y-81764001D01*
X-62291487Y-81768928D01*
G37*
G36*
X-28775109Y-81409018D02*
G01*
X-28721132Y-81431376D01*
X-28656635Y-81458092D01*
X-28607243Y-81491095D01*
X-28550011Y-81529336D01*
X-28459334Y-81620013D01*
X-28388089Y-81726639D01*
X-28339016Y-81845111D01*
X-28313999Y-81970882D01*
X-28313999Y-82099120D01*
X-28339016Y-82224891D01*
X-28372838Y-82306545D01*
X-28388090Y-82343365D01*
X-28459334Y-82449989D01*
X-28550011Y-82540666D01*
X-28656635Y-82611910D01*
X-28656636Y-82611911D01*
X-28656637Y-82611911D01*
X-28775109Y-82660984D01*
X-28900880Y-82686001D01*
X-29029118Y-82686001D01*
X-29154889Y-82660984D01*
X-29273361Y-82611911D01*
X-29273362Y-82611911D01*
X-29273363Y-82611910D01*
X-29379987Y-82540666D01*
X-29470664Y-82449989D01*
X-29541908Y-82343365D01*
X-29557159Y-82306545D01*
X-29590982Y-82224891D01*
X-29615999Y-82099120D01*
X-29615999Y-81970882D01*
X-29590982Y-81845111D01*
X-29541909Y-81726639D01*
X-29470664Y-81620013D01*
X-29379987Y-81529336D01*
X-29322755Y-81491095D01*
X-29273363Y-81458092D01*
X-29208865Y-81431376D01*
X-29154889Y-81409018D01*
X-29029118Y-81384001D01*
X-28900880Y-81384001D01*
X-28775109Y-81409018D01*
G37*
G36*
X-33781144Y-81387141D02*
G01*
X-33717381Y-81393421D01*
X-33626595Y-81420961D01*
X-33594663Y-81430647D01*
X-33481574Y-81491095D01*
X-33382445Y-81572447D01*
X-33301093Y-81671576D01*
X-33240645Y-81784665D01*
X-33240644Y-81784669D01*
X-33203419Y-81907383D01*
X-33190850Y-82035001D01*
X-33203419Y-82162619D01*
X-33226352Y-82238219D01*
X-33240645Y-82285337D01*
X-33301093Y-82398426D01*
X-33382445Y-82497555D01*
X-33481574Y-82578907D01*
X-33594663Y-82639355D01*
X-33626595Y-82649041D01*
X-33717381Y-82676581D01*
X-33781144Y-82682861D01*
X-33813025Y-82686001D01*
X-34276973Y-82686001D01*
X-34308854Y-82682861D01*
X-34372617Y-82676581D01*
X-34463403Y-82649041D01*
X-34495335Y-82639355D01*
X-34608424Y-82578907D01*
X-34707553Y-82497555D01*
X-34788905Y-82398426D01*
X-34849353Y-82285337D01*
X-34863646Y-82238219D01*
X-34886579Y-82162619D01*
X-34899148Y-82035001D01*
X-34886579Y-81907383D01*
X-34849354Y-81784669D01*
X-34849353Y-81784665D01*
X-34788905Y-81671576D01*
X-34707553Y-81572447D01*
X-34608424Y-81491095D01*
X-34495335Y-81430647D01*
X-34463403Y-81420961D01*
X-34372617Y-81393421D01*
X-34308854Y-81387141D01*
X-34276973Y-81384001D01*
X-33813025Y-81384001D01*
X-33781144Y-81387141D01*
G37*
G36*
X-39725109Y-81409018D02*
G01*
X-39671132Y-81431376D01*
X-39606635Y-81458092D01*
X-39557243Y-81491095D01*
X-39500011Y-81529336D01*
X-39409334Y-81620013D01*
X-39338089Y-81726639D01*
X-39289016Y-81845111D01*
X-39263999Y-81970882D01*
X-39263999Y-82099120D01*
X-39289016Y-82224891D01*
X-39322838Y-82306545D01*
X-39338090Y-82343365D01*
X-39409334Y-82449989D01*
X-39500011Y-82540666D01*
X-39606635Y-82611910D01*
X-39606636Y-82611911D01*
X-39606637Y-82611911D01*
X-39725109Y-82660984D01*
X-39850880Y-82686001D01*
X-39979118Y-82686001D01*
X-40104889Y-82660984D01*
X-40223361Y-82611911D01*
X-40223362Y-82611911D01*
X-40223363Y-82611910D01*
X-40329987Y-82540666D01*
X-40420664Y-82449989D01*
X-40491908Y-82343365D01*
X-40507159Y-82306545D01*
X-40540982Y-82224891D01*
X-40565999Y-82099120D01*
X-40565999Y-81970882D01*
X-40540982Y-81845111D01*
X-40491909Y-81726639D01*
X-40420664Y-81620013D01*
X-40329987Y-81529336D01*
X-40272755Y-81491095D01*
X-40223363Y-81458092D01*
X-40158865Y-81431376D01*
X-40104889Y-81409018D01*
X-39979118Y-81384001D01*
X-39850880Y-81384001D01*
X-39725109Y-81409018D01*
G37*
G36*
X-44731144Y-81387141D02*
G01*
X-44667381Y-81393421D01*
X-44576595Y-81420961D01*
X-44544663Y-81430647D01*
X-44431574Y-81491095D01*
X-44332445Y-81572447D01*
X-44251093Y-81671576D01*
X-44190645Y-81784665D01*
X-44190644Y-81784669D01*
X-44153419Y-81907383D01*
X-44140850Y-82035001D01*
X-44153419Y-82162619D01*
X-44176352Y-82238219D01*
X-44190645Y-82285337D01*
X-44251093Y-82398426D01*
X-44332445Y-82497555D01*
X-44431574Y-82578907D01*
X-44544663Y-82639355D01*
X-44576595Y-82649041D01*
X-44667381Y-82676581D01*
X-44731144Y-82682861D01*
X-44763025Y-82686001D01*
X-45226973Y-82686001D01*
X-45258854Y-82682861D01*
X-45322617Y-82676581D01*
X-45413403Y-82649041D01*
X-45445335Y-82639355D01*
X-45558424Y-82578907D01*
X-45657553Y-82497555D01*
X-45738905Y-82398426D01*
X-45799353Y-82285337D01*
X-45813646Y-82238219D01*
X-45836579Y-82162619D01*
X-45849148Y-82035001D01*
X-45836579Y-81907383D01*
X-45799354Y-81784669D01*
X-45799353Y-81784665D01*
X-45738905Y-81671576D01*
X-45657553Y-81572447D01*
X-45558424Y-81491095D01*
X-45445335Y-81430647D01*
X-45413403Y-81420961D01*
X-45322617Y-81393421D01*
X-45258854Y-81387141D01*
X-45226973Y-81384001D01*
X-44763025Y-81384001D01*
X-44731144Y-81387141D01*
G37*
G36*
X-168241487Y-79668928D02*
G01*
X-168092187Y-79698625D01*
X-167928215Y-79766545D01*
X-167780645Y-79865148D01*
X-167655146Y-79990647D01*
X-167556543Y-80138217D01*
X-167488623Y-80302189D01*
X-167453999Y-80476260D01*
X-167453999Y-80653742D01*
X-167488623Y-80827813D01*
X-167556543Y-80991785D01*
X-167655146Y-81139355D01*
X-167780645Y-81264854D01*
X-167928215Y-81363457D01*
X-168092187Y-81431377D01*
X-168226491Y-81458091D01*
X-168266257Y-81466001D01*
X-168443741Y-81466001D01*
X-168483507Y-81458091D01*
X-168617811Y-81431377D01*
X-168781783Y-81363457D01*
X-168929353Y-81264854D01*
X-169054852Y-81139355D01*
X-169153455Y-80991785D01*
X-169221375Y-80827813D01*
X-169255999Y-80653742D01*
X-169255999Y-80476260D01*
X-169221375Y-80302189D01*
X-169153455Y-80138217D01*
X-169054852Y-79990647D01*
X-168929353Y-79865148D01*
X-168781783Y-79766545D01*
X-168617811Y-79698625D01*
X-168468511Y-79668928D01*
X-168443741Y-79664001D01*
X-168266257Y-79664001D01*
X-168241487Y-79668928D01*
G37*
G36*
X-165701487Y-79668928D02*
G01*
X-165552187Y-79698625D01*
X-165388215Y-79766545D01*
X-165240645Y-79865148D01*
X-165115146Y-79990647D01*
X-165016543Y-80138217D01*
X-164948623Y-80302189D01*
X-164913999Y-80476260D01*
X-164913999Y-80653742D01*
X-164948623Y-80827813D01*
X-165016543Y-80991785D01*
X-165115146Y-81139355D01*
X-165240645Y-81264854D01*
X-165388215Y-81363457D01*
X-165552187Y-81431377D01*
X-165686491Y-81458091D01*
X-165726257Y-81466001D01*
X-165903741Y-81466001D01*
X-165943507Y-81458091D01*
X-166077811Y-81431377D01*
X-166241783Y-81363457D01*
X-166389353Y-81264854D01*
X-166514852Y-81139355D01*
X-166613455Y-80991785D01*
X-166681375Y-80827813D01*
X-166715999Y-80653742D01*
X-166715999Y-80476260D01*
X-166681375Y-80302189D01*
X-166613455Y-80138217D01*
X-166514852Y-79990647D01*
X-166389353Y-79865148D01*
X-166241783Y-79766545D01*
X-166077811Y-79698625D01*
X-165928511Y-79668928D01*
X-165903741Y-79664001D01*
X-165726257Y-79664001D01*
X-165701487Y-79668928D01*
G37*
G36*
X-62291487Y-79228928D02*
G01*
X-62142187Y-79258625D01*
X-61978215Y-79326545D01*
X-61830645Y-79425148D01*
X-61705146Y-79550647D01*
X-61606543Y-79698217D01*
X-61538623Y-79862189D01*
X-61503999Y-80036260D01*
X-61503999Y-80213742D01*
X-61538623Y-80387813D01*
X-61606543Y-80551785D01*
X-61705146Y-80699355D01*
X-61830645Y-80824854D01*
X-61978215Y-80923457D01*
X-62142187Y-80991377D01*
X-62291487Y-81021074D01*
X-62316257Y-81026001D01*
X-62493741Y-81026001D01*
X-62518511Y-81021074D01*
X-62667811Y-80991377D01*
X-62831783Y-80923457D01*
X-62979353Y-80824854D01*
X-63104852Y-80699355D01*
X-63203455Y-80551785D01*
X-63271375Y-80387813D01*
X-63305999Y-80213742D01*
X-63305999Y-80036260D01*
X-63271375Y-79862189D01*
X-63203455Y-79698217D01*
X-63104852Y-79550647D01*
X-62979353Y-79425148D01*
X-62831783Y-79326545D01*
X-62667811Y-79258625D01*
X-62518511Y-79228928D01*
X-62493741Y-79224001D01*
X-62316257Y-79224001D01*
X-62291487Y-79228928D01*
G37*
G36*
X-17965109Y-78799018D02*
G01*
X-17906108Y-78823457D01*
X-17846635Y-78848092D01*
X-17781856Y-78891376D01*
X-17740011Y-78919336D01*
X-17649334Y-79010013D01*
X-17578089Y-79116639D01*
X-17529016Y-79235111D01*
X-17503999Y-79360882D01*
X-17503999Y-79489120D01*
X-17529016Y-79614891D01*
X-17578090Y-79733365D01*
X-17649334Y-79839989D01*
X-17740011Y-79930666D01*
X-17846635Y-80001910D01*
X-17846636Y-80001911D01*
X-17846637Y-80001911D01*
X-17965109Y-80050984D01*
X-18090880Y-80076001D01*
X-18219118Y-80076001D01*
X-18344889Y-80050984D01*
X-18463361Y-80001911D01*
X-18463362Y-80001911D01*
X-18463363Y-80001910D01*
X-18569987Y-79930666D01*
X-18660664Y-79839989D01*
X-18731908Y-79733365D01*
X-18780982Y-79614891D01*
X-18805999Y-79489120D01*
X-18805999Y-79360882D01*
X-18780982Y-79235111D01*
X-18731909Y-79116639D01*
X-18660664Y-79010013D01*
X-18569987Y-78919336D01*
X-18528142Y-78891376D01*
X-18463363Y-78848092D01*
X-18403889Y-78823457D01*
X-18344889Y-78799018D01*
X-18219118Y-78774001D01*
X-18090880Y-78774001D01*
X-17965109Y-78799018D01*
G37*
G36*
X-165701487Y-77128928D02*
G01*
X-165552187Y-77158625D01*
X-165388215Y-77226545D01*
X-165240645Y-77325148D01*
X-165115146Y-77450647D01*
X-165016543Y-77598217D01*
X-164948623Y-77762189D01*
X-164913999Y-77936260D01*
X-164913999Y-78113742D01*
X-164948623Y-78287813D01*
X-165016543Y-78451785D01*
X-165115146Y-78599355D01*
X-165240645Y-78724854D01*
X-165388215Y-78823457D01*
X-165552187Y-78891377D01*
X-165692750Y-78919336D01*
X-165726257Y-78926001D01*
X-165903741Y-78926001D01*
X-165937248Y-78919336D01*
X-166077811Y-78891377D01*
X-166241783Y-78823457D01*
X-166389353Y-78724854D01*
X-166514852Y-78599355D01*
X-166613455Y-78451785D01*
X-166681375Y-78287813D01*
X-166715999Y-78113742D01*
X-166715999Y-77936260D01*
X-166681375Y-77762189D01*
X-166613455Y-77598217D01*
X-166514852Y-77450647D01*
X-166389353Y-77325148D01*
X-166241783Y-77226545D01*
X-166077811Y-77158625D01*
X-165928511Y-77128928D01*
X-165903741Y-77124001D01*
X-165726257Y-77124001D01*
X-165701487Y-77128928D01*
G37*
G36*
X-168241487Y-77128928D02*
G01*
X-168092187Y-77158625D01*
X-167928215Y-77226545D01*
X-167780645Y-77325148D01*
X-167655146Y-77450647D01*
X-167556543Y-77598217D01*
X-167488623Y-77762189D01*
X-167453999Y-77936260D01*
X-167453999Y-78113742D01*
X-167488623Y-78287813D01*
X-167556543Y-78451785D01*
X-167655146Y-78599355D01*
X-167780645Y-78724854D01*
X-167928215Y-78823457D01*
X-168092187Y-78891377D01*
X-168232750Y-78919336D01*
X-168266257Y-78926001D01*
X-168443741Y-78926001D01*
X-168477248Y-78919336D01*
X-168617811Y-78891377D01*
X-168781783Y-78823457D01*
X-168929353Y-78724854D01*
X-169054852Y-78599355D01*
X-169153455Y-78451785D01*
X-169221375Y-78287813D01*
X-169255999Y-78113742D01*
X-169255999Y-77936260D01*
X-169221375Y-77762189D01*
X-169153455Y-77598217D01*
X-169054852Y-77450647D01*
X-168929353Y-77325148D01*
X-168781783Y-77226545D01*
X-168617811Y-77158625D01*
X-168468511Y-77128928D01*
X-168443741Y-77124001D01*
X-168266257Y-77124001D01*
X-168241487Y-77128928D01*
G37*
G36*
X-61503999Y-78486001D02*
G01*
X-63305999Y-78486001D01*
X-63305999Y-76684001D01*
X-61503999Y-76684001D01*
X-61503999Y-78486001D01*
G37*
G36*
X-9453999Y-78436001D02*
G01*
X-11255999Y-78436001D01*
X-11255999Y-76634001D01*
X-9453999Y-76634001D01*
X-9453999Y-78436001D01*
G37*
G36*
X-20431144Y-76237141D02*
G01*
X-20367381Y-76243421D01*
X-20276595Y-76270961D01*
X-20244663Y-76280647D01*
X-20131574Y-76341095D01*
X-20032445Y-76422447D01*
X-19951093Y-76521576D01*
X-19890645Y-76634665D01*
X-19890644Y-76634669D01*
X-19853419Y-76757383D01*
X-19840850Y-76885001D01*
X-19853419Y-77012619D01*
X-19872309Y-77074891D01*
X-19890645Y-77135337D01*
X-19951093Y-77248426D01*
X-20032445Y-77347555D01*
X-20131574Y-77428907D01*
X-20244663Y-77489355D01*
X-20276595Y-77499041D01*
X-20367381Y-77526581D01*
X-20431144Y-77532861D01*
X-20463025Y-77536001D01*
X-20926973Y-77536001D01*
X-20958854Y-77532861D01*
X-21022617Y-77526581D01*
X-21113403Y-77499041D01*
X-21145335Y-77489355D01*
X-21258424Y-77428907D01*
X-21357553Y-77347555D01*
X-21438905Y-77248426D01*
X-21499353Y-77135337D01*
X-21517689Y-77074891D01*
X-21536579Y-77012619D01*
X-21549148Y-76885001D01*
X-21536579Y-76757383D01*
X-21499354Y-76634669D01*
X-21499353Y-76634665D01*
X-21438905Y-76521576D01*
X-21357553Y-76422447D01*
X-21258424Y-76341095D01*
X-21145335Y-76280647D01*
X-21113403Y-76270961D01*
X-21022617Y-76243421D01*
X-20958854Y-76237141D01*
X-20926973Y-76234001D01*
X-20463025Y-76234001D01*
X-20431144Y-76237141D01*
G37*
G36*
X-15425109Y-76259018D02*
G01*
X-15366108Y-76283457D01*
X-15306635Y-76308092D01*
X-15200011Y-76379336D01*
X-15109334Y-76470013D01*
X-15038090Y-76576637D01*
X-14989016Y-76695111D01*
X-14963999Y-76820883D01*
X-14963999Y-76949119D01*
X-14989016Y-77074891D01*
X-15038090Y-77193365D01*
X-15109334Y-77299989D01*
X-15200011Y-77390666D01*
X-15306635Y-77461910D01*
X-15306636Y-77461911D01*
X-15306637Y-77461911D01*
X-15425109Y-77510984D01*
X-15550880Y-77536001D01*
X-15679118Y-77536001D01*
X-15804889Y-77510984D01*
X-15923361Y-77461911D01*
X-15923362Y-77461911D01*
X-15923363Y-77461910D01*
X-16029987Y-77390666D01*
X-16120664Y-77299989D01*
X-16191908Y-77193365D01*
X-16240982Y-77074891D01*
X-16265999Y-76949119D01*
X-16265999Y-76820883D01*
X-16240982Y-76695111D01*
X-16191908Y-76576637D01*
X-16120664Y-76470013D01*
X-16029987Y-76379336D01*
X-15923363Y-76308092D01*
X-15863889Y-76283457D01*
X-15804889Y-76259018D01*
X-15679118Y-76234001D01*
X-15550880Y-76234001D01*
X-15425109Y-76259018D01*
G37*
G36*
X-168241487Y-74588928D02*
G01*
X-168092187Y-74618625D01*
X-167928215Y-74686545D01*
X-167780645Y-74785148D01*
X-167655146Y-74910647D01*
X-167556543Y-75058217D01*
X-167488623Y-75222189D01*
X-167453999Y-75396260D01*
X-167453999Y-75573742D01*
X-167488623Y-75747813D01*
X-167556543Y-75911785D01*
X-167655146Y-76059355D01*
X-167780645Y-76184854D01*
X-167928215Y-76283457D01*
X-168092187Y-76351377D01*
X-168232750Y-76379336D01*
X-168266257Y-76386001D01*
X-168443741Y-76386001D01*
X-168477248Y-76379336D01*
X-168617811Y-76351377D01*
X-168781783Y-76283457D01*
X-168929353Y-76184854D01*
X-169054852Y-76059355D01*
X-169153455Y-75911785D01*
X-169221375Y-75747813D01*
X-169255999Y-75573742D01*
X-169255999Y-75396260D01*
X-169221375Y-75222189D01*
X-169153455Y-75058217D01*
X-169054852Y-74910647D01*
X-168929353Y-74785148D01*
X-168781783Y-74686545D01*
X-168617811Y-74618625D01*
X-168468511Y-74588928D01*
X-168443741Y-74584001D01*
X-168266257Y-74584001D01*
X-168241487Y-74588928D01*
G37*
G36*
X-165701487Y-74588928D02*
G01*
X-165552187Y-74618625D01*
X-165388215Y-74686545D01*
X-165240645Y-74785148D01*
X-165115146Y-74910647D01*
X-165016543Y-75058217D01*
X-164948623Y-75222189D01*
X-164913999Y-75396260D01*
X-164913999Y-75573742D01*
X-164948623Y-75747813D01*
X-165016543Y-75911785D01*
X-165115146Y-76059355D01*
X-165240645Y-76184854D01*
X-165388215Y-76283457D01*
X-165552187Y-76351377D01*
X-165692750Y-76379336D01*
X-165726257Y-76386001D01*
X-165903741Y-76386001D01*
X-165937248Y-76379336D01*
X-166077811Y-76351377D01*
X-166241783Y-76283457D01*
X-166389353Y-76184854D01*
X-166514852Y-76059355D01*
X-166613455Y-75911785D01*
X-166681375Y-75747813D01*
X-166715999Y-75573742D01*
X-166715999Y-75396260D01*
X-166681375Y-75222189D01*
X-166613455Y-75058217D01*
X-166514852Y-74910647D01*
X-166389353Y-74785148D01*
X-166241783Y-74686545D01*
X-166077811Y-74618625D01*
X-165928511Y-74588928D01*
X-165903741Y-74584001D01*
X-165726257Y-74584001D01*
X-165701487Y-74588928D01*
G37*
G36*
X-165701487Y-72048928D02*
G01*
X-165552187Y-72078625D01*
X-165388215Y-72146545D01*
X-165240645Y-72245148D01*
X-165115146Y-72370647D01*
X-165016543Y-72518217D01*
X-164948623Y-72682189D01*
X-164913999Y-72856260D01*
X-164913999Y-73033742D01*
X-164948623Y-73207813D01*
X-165016543Y-73371785D01*
X-165115146Y-73519355D01*
X-165240645Y-73644854D01*
X-165388215Y-73743457D01*
X-165552187Y-73811377D01*
X-165701487Y-73841074D01*
X-165726257Y-73846001D01*
X-165903741Y-73846001D01*
X-165928511Y-73841074D01*
X-166077811Y-73811377D01*
X-166241783Y-73743457D01*
X-166389353Y-73644854D01*
X-166514852Y-73519355D01*
X-166613455Y-73371785D01*
X-166681375Y-73207813D01*
X-166715999Y-73033742D01*
X-166715999Y-72856260D01*
X-166681375Y-72682189D01*
X-166613455Y-72518217D01*
X-166514852Y-72370647D01*
X-166389353Y-72245148D01*
X-166241783Y-72146545D01*
X-166077811Y-72078625D01*
X-165928511Y-72048928D01*
X-165903741Y-72044001D01*
X-165726257Y-72044001D01*
X-165701487Y-72048928D01*
G37*
G36*
X-168241487Y-72048928D02*
G01*
X-168092187Y-72078625D01*
X-167928215Y-72146545D01*
X-167780645Y-72245148D01*
X-167655146Y-72370647D01*
X-167556543Y-72518217D01*
X-167488623Y-72682189D01*
X-167453999Y-72856260D01*
X-167453999Y-73033742D01*
X-167488623Y-73207813D01*
X-167556543Y-73371785D01*
X-167655146Y-73519355D01*
X-167780645Y-73644854D01*
X-167928215Y-73743457D01*
X-168092187Y-73811377D01*
X-168241487Y-73841074D01*
X-168266257Y-73846001D01*
X-168443741Y-73846001D01*
X-168468511Y-73841074D01*
X-168617811Y-73811377D01*
X-168781783Y-73743457D01*
X-168929353Y-73644854D01*
X-169054852Y-73519355D01*
X-169153455Y-73371785D01*
X-169221375Y-73207813D01*
X-169255999Y-73033742D01*
X-169255999Y-72856260D01*
X-169221375Y-72682189D01*
X-169153455Y-72518217D01*
X-169054852Y-72370647D01*
X-168929353Y-72245148D01*
X-168781783Y-72146545D01*
X-168617811Y-72078625D01*
X-168468511Y-72048928D01*
X-168443741Y-72044001D01*
X-168266257Y-72044001D01*
X-168241487Y-72048928D01*
G37*
G36*
X-62291487Y-72048928D02*
G01*
X-62142187Y-72078625D01*
X-61978215Y-72146545D01*
X-61830645Y-72245148D01*
X-61705146Y-72370647D01*
X-61606543Y-72518217D01*
X-61538623Y-72682189D01*
X-61503999Y-72856260D01*
X-61503999Y-73033742D01*
X-61538623Y-73207813D01*
X-61606543Y-73371785D01*
X-61705146Y-73519355D01*
X-61830645Y-73644854D01*
X-61978215Y-73743457D01*
X-62142187Y-73811377D01*
X-62291487Y-73841074D01*
X-62316257Y-73846001D01*
X-62493741Y-73846001D01*
X-62518511Y-73841074D01*
X-62667811Y-73811377D01*
X-62831783Y-73743457D01*
X-62979353Y-73644854D01*
X-63104852Y-73519355D01*
X-63203455Y-73371785D01*
X-63271375Y-73207813D01*
X-63305999Y-73033742D01*
X-63305999Y-72856260D01*
X-63271375Y-72682189D01*
X-63203455Y-72518217D01*
X-63104852Y-72370647D01*
X-62979353Y-72245148D01*
X-62831783Y-72146545D01*
X-62667811Y-72078625D01*
X-62518511Y-72048928D01*
X-62493741Y-72044001D01*
X-62316257Y-72044001D01*
X-62291487Y-72048928D01*
G37*
G36*
X-168241487Y-69508928D02*
G01*
X-168092187Y-69538625D01*
X-167928215Y-69606545D01*
X-167780645Y-69705148D01*
X-167655146Y-69830647D01*
X-167556543Y-69978217D01*
X-167488623Y-70142189D01*
X-167453999Y-70316260D01*
X-167453999Y-70493742D01*
X-167488623Y-70667813D01*
X-167556543Y-70831785D01*
X-167655146Y-70979355D01*
X-167780645Y-71104854D01*
X-167928215Y-71203457D01*
X-168092187Y-71271377D01*
X-168241487Y-71301074D01*
X-168266257Y-71306001D01*
X-168443741Y-71306001D01*
X-168468511Y-71301074D01*
X-168617811Y-71271377D01*
X-168781783Y-71203457D01*
X-168929353Y-71104854D01*
X-169054852Y-70979355D01*
X-169153455Y-70831785D01*
X-169221375Y-70667813D01*
X-169255999Y-70493742D01*
X-169255999Y-70316260D01*
X-169221375Y-70142189D01*
X-169153455Y-69978217D01*
X-169054852Y-69830647D01*
X-168929353Y-69705148D01*
X-168781783Y-69606545D01*
X-168617811Y-69538625D01*
X-168468511Y-69508928D01*
X-168443741Y-69504001D01*
X-168266257Y-69504001D01*
X-168241487Y-69508928D01*
G37*
G36*
X-165701487Y-69508928D02*
G01*
X-165552187Y-69538625D01*
X-165388215Y-69606545D01*
X-165240645Y-69705148D01*
X-165115146Y-69830647D01*
X-165016543Y-69978217D01*
X-164948623Y-70142189D01*
X-164913999Y-70316260D01*
X-164913999Y-70493742D01*
X-164948623Y-70667813D01*
X-165016543Y-70831785D01*
X-165115146Y-70979355D01*
X-165240645Y-71104854D01*
X-165388215Y-71203457D01*
X-165552187Y-71271377D01*
X-165701487Y-71301074D01*
X-165726257Y-71306001D01*
X-165903741Y-71306001D01*
X-165928511Y-71301074D01*
X-166077811Y-71271377D01*
X-166241783Y-71203457D01*
X-166389353Y-71104854D01*
X-166514852Y-70979355D01*
X-166613455Y-70831785D01*
X-166681375Y-70667813D01*
X-166715999Y-70493742D01*
X-166715999Y-70316260D01*
X-166681375Y-70142189D01*
X-166613455Y-69978217D01*
X-166514852Y-69830647D01*
X-166389353Y-69705148D01*
X-166241783Y-69606545D01*
X-166077811Y-69538625D01*
X-165928511Y-69508928D01*
X-165903741Y-69504001D01*
X-165726257Y-69504001D01*
X-165701487Y-69508928D01*
G37*
G36*
X-62291487Y-69508928D02*
G01*
X-62142187Y-69538625D01*
X-61978215Y-69606545D01*
X-61830645Y-69705148D01*
X-61705146Y-69830647D01*
X-61606543Y-69978217D01*
X-61538623Y-70142189D01*
X-61503999Y-70316260D01*
X-61503999Y-70493742D01*
X-61538623Y-70667813D01*
X-61606543Y-70831785D01*
X-61705146Y-70979355D01*
X-61830645Y-71104854D01*
X-61978215Y-71203457D01*
X-62142187Y-71271377D01*
X-62291487Y-71301074D01*
X-62316257Y-71306001D01*
X-62493741Y-71306001D01*
X-62518511Y-71301074D01*
X-62667811Y-71271377D01*
X-62831783Y-71203457D01*
X-62979353Y-71104854D01*
X-63104852Y-70979355D01*
X-63203455Y-70831785D01*
X-63271375Y-70667813D01*
X-63305999Y-70493742D01*
X-63305999Y-70316260D01*
X-63271375Y-70142189D01*
X-63203455Y-69978217D01*
X-63104852Y-69830647D01*
X-62979353Y-69705148D01*
X-62831783Y-69606545D01*
X-62667811Y-69538625D01*
X-62518511Y-69508928D01*
X-62493741Y-69504001D01*
X-62316257Y-69504001D01*
X-62291487Y-69508928D01*
G37*
G36*
X-17965109Y-67849018D02*
G01*
X-17846635Y-67898092D01*
X-17740011Y-67969336D01*
X-17649334Y-68060013D01*
X-17604031Y-68127813D01*
X-17578089Y-68166639D01*
X-17529016Y-68285111D01*
X-17503999Y-68410882D01*
X-17503999Y-68539120D01*
X-17529016Y-68664891D01*
X-17570897Y-68766001D01*
X-17578090Y-68783365D01*
X-17649334Y-68889989D01*
X-17740011Y-68980666D01*
X-17846635Y-69051910D01*
X-17846636Y-69051911D01*
X-17846637Y-69051911D01*
X-17965109Y-69100984D01*
X-18090880Y-69126001D01*
X-18219118Y-69126001D01*
X-18344889Y-69100984D01*
X-18463361Y-69051911D01*
X-18463362Y-69051911D01*
X-18463363Y-69051910D01*
X-18569987Y-68980666D01*
X-18660664Y-68889989D01*
X-18731908Y-68783365D01*
X-18739100Y-68766001D01*
X-18780982Y-68664891D01*
X-18805999Y-68539120D01*
X-18805999Y-68410882D01*
X-18780982Y-68285111D01*
X-18731909Y-68166639D01*
X-18705966Y-68127813D01*
X-18660664Y-68060013D01*
X-18569987Y-67969336D01*
X-18463363Y-67898092D01*
X-18344889Y-67849018D01*
X-18219118Y-67824001D01*
X-18090880Y-67824001D01*
X-17965109Y-67849018D01*
G37*
G36*
X-168241487Y-66968928D02*
G01*
X-168092187Y-66998625D01*
X-167928215Y-67066545D01*
X-167780645Y-67165148D01*
X-167655146Y-67290647D01*
X-167556543Y-67438217D01*
X-167488623Y-67602189D01*
X-167453999Y-67776260D01*
X-167453999Y-67953742D01*
X-167488623Y-68127813D01*
X-167556543Y-68291785D01*
X-167655146Y-68439355D01*
X-167780645Y-68564854D01*
X-167928215Y-68663457D01*
X-168092187Y-68731377D01*
X-168241487Y-68761074D01*
X-168266257Y-68766001D01*
X-168443741Y-68766001D01*
X-168468511Y-68761074D01*
X-168617811Y-68731377D01*
X-168781783Y-68663457D01*
X-168929353Y-68564854D01*
X-169054852Y-68439355D01*
X-169153455Y-68291785D01*
X-169221375Y-68127813D01*
X-169255999Y-67953742D01*
X-169255999Y-67776260D01*
X-169221375Y-67602189D01*
X-169153455Y-67438217D01*
X-169054852Y-67290647D01*
X-168929353Y-67165148D01*
X-168781783Y-67066545D01*
X-168617811Y-66998625D01*
X-168468511Y-66968928D01*
X-168443741Y-66964001D01*
X-168266257Y-66964001D01*
X-168241487Y-66968928D01*
G37*
G36*
X-165701487Y-66968928D02*
G01*
X-165552187Y-66998625D01*
X-165388215Y-67066545D01*
X-165240645Y-67165148D01*
X-165115146Y-67290647D01*
X-165016543Y-67438217D01*
X-164948623Y-67602189D01*
X-164913999Y-67776260D01*
X-164913999Y-67953742D01*
X-164948623Y-68127813D01*
X-165016543Y-68291785D01*
X-165115146Y-68439355D01*
X-165240645Y-68564854D01*
X-165388215Y-68663457D01*
X-165552187Y-68731377D01*
X-165701487Y-68761074D01*
X-165726257Y-68766001D01*
X-165903741Y-68766001D01*
X-165928511Y-68761074D01*
X-166077811Y-68731377D01*
X-166241783Y-68663457D01*
X-166389353Y-68564854D01*
X-166514852Y-68439355D01*
X-166613455Y-68291785D01*
X-166681375Y-68127813D01*
X-166715999Y-67953742D01*
X-166715999Y-67776260D01*
X-166681375Y-67602189D01*
X-166613455Y-67438217D01*
X-166514852Y-67290647D01*
X-166389353Y-67165148D01*
X-166241783Y-67066545D01*
X-166077811Y-66998625D01*
X-165928511Y-66968928D01*
X-165903741Y-66964001D01*
X-165726257Y-66964001D01*
X-165701487Y-66968928D01*
G37*
G36*
X-62291487Y-66968928D02*
G01*
X-62142187Y-66998625D01*
X-61978215Y-67066545D01*
X-61830645Y-67165148D01*
X-61705146Y-67290647D01*
X-61606543Y-67438217D01*
X-61538623Y-67602189D01*
X-61503999Y-67776260D01*
X-61503999Y-67953742D01*
X-61538623Y-68127813D01*
X-61606543Y-68291785D01*
X-61705146Y-68439355D01*
X-61830645Y-68564854D01*
X-61978215Y-68663457D01*
X-62142187Y-68731377D01*
X-62291487Y-68761074D01*
X-62316257Y-68766001D01*
X-62493741Y-68766001D01*
X-62518511Y-68761074D01*
X-62667811Y-68731377D01*
X-62831783Y-68663457D01*
X-62979353Y-68564854D01*
X-63104852Y-68439355D01*
X-63203455Y-68291785D01*
X-63271375Y-68127813D01*
X-63305999Y-67953742D01*
X-63305999Y-67776260D01*
X-63271375Y-67602189D01*
X-63203455Y-67438217D01*
X-63104852Y-67290647D01*
X-62979353Y-67165148D01*
X-62831783Y-67066545D01*
X-62667811Y-66998625D01*
X-62518511Y-66968928D01*
X-62493741Y-66964001D01*
X-62316257Y-66964001D01*
X-62291487Y-66968928D01*
G37*
G36*
X-15503522Y-65293421D02*
G01*
X-15425109Y-65309018D01*
X-15306635Y-65358092D01*
X-15200011Y-65429336D01*
X-15109334Y-65520013D01*
X-15064031Y-65587813D01*
X-15038089Y-65626639D01*
X-14989016Y-65745111D01*
X-14963999Y-65870882D01*
X-14963999Y-65999120D01*
X-14989016Y-66124891D01*
X-15030897Y-66226001D01*
X-15038090Y-66243365D01*
X-15109334Y-66349989D01*
X-15200011Y-66440666D01*
X-15306635Y-66511910D01*
X-15306636Y-66511911D01*
X-15306637Y-66511911D01*
X-15425109Y-66560984D01*
X-15550880Y-66586001D01*
X-15679118Y-66586001D01*
X-15804889Y-66560984D01*
X-15923361Y-66511911D01*
X-15923362Y-66511911D01*
X-15923363Y-66511910D01*
X-16029987Y-66440666D01*
X-16120664Y-66349989D01*
X-16191908Y-66243365D01*
X-16199100Y-66226001D01*
X-16240982Y-66124891D01*
X-16265999Y-65999120D01*
X-16265999Y-65870882D01*
X-16240982Y-65745111D01*
X-16191909Y-65626639D01*
X-16165966Y-65587813D01*
X-16120664Y-65520013D01*
X-16029987Y-65429336D01*
X-15923363Y-65358092D01*
X-15804889Y-65309018D01*
X-15726476Y-65293421D01*
X-15679118Y-65284001D01*
X-15550880Y-65284001D01*
X-15503522Y-65293421D01*
G37*
G36*
X-20431144Y-65287141D02*
G01*
X-20367381Y-65293421D01*
X-20276595Y-65320961D01*
X-20244663Y-65330647D01*
X-20131574Y-65391095D01*
X-20032445Y-65472447D01*
X-19951093Y-65571576D01*
X-19890645Y-65684665D01*
X-19890644Y-65684669D01*
X-19853419Y-65807383D01*
X-19840850Y-65935001D01*
X-19853419Y-66062619D01*
X-19871874Y-66123457D01*
X-19890645Y-66185337D01*
X-19951093Y-66298426D01*
X-20032445Y-66397555D01*
X-20131574Y-66478907D01*
X-20244663Y-66539355D01*
X-20276595Y-66549041D01*
X-20367381Y-66576581D01*
X-20431144Y-66582861D01*
X-20463025Y-66586001D01*
X-20926973Y-66586001D01*
X-20958854Y-66582861D01*
X-21022617Y-66576581D01*
X-21113403Y-66549041D01*
X-21145335Y-66539355D01*
X-21258424Y-66478907D01*
X-21357553Y-66397555D01*
X-21438905Y-66298426D01*
X-21499353Y-66185337D01*
X-21518124Y-66123457D01*
X-21536579Y-66062619D01*
X-21549148Y-65935001D01*
X-21536579Y-65807383D01*
X-21499354Y-65684669D01*
X-21499353Y-65684665D01*
X-21438905Y-65571576D01*
X-21357553Y-65472447D01*
X-21258424Y-65391095D01*
X-21145335Y-65330647D01*
X-21113403Y-65320961D01*
X-21022617Y-65293421D01*
X-20958854Y-65287141D01*
X-20926973Y-65284001D01*
X-20463025Y-65284001D01*
X-20431144Y-65287141D01*
G37*
G36*
X-165701487Y-64428928D02*
G01*
X-165552187Y-64458625D01*
X-165388215Y-64526545D01*
X-165240645Y-64625148D01*
X-165115146Y-64750647D01*
X-165016543Y-64898217D01*
X-164948623Y-65062189D01*
X-164913999Y-65236260D01*
X-164913999Y-65413742D01*
X-164948623Y-65587813D01*
X-165016543Y-65751785D01*
X-165115146Y-65899355D01*
X-165240645Y-66024854D01*
X-165388215Y-66123457D01*
X-165552187Y-66191377D01*
X-165701487Y-66221074D01*
X-165726257Y-66226001D01*
X-165903741Y-66226001D01*
X-165928511Y-66221074D01*
X-166077811Y-66191377D01*
X-166241783Y-66123457D01*
X-166389353Y-66024854D01*
X-166514852Y-65899355D01*
X-166613455Y-65751785D01*
X-166681375Y-65587813D01*
X-166715999Y-65413742D01*
X-166715999Y-65236260D01*
X-166681375Y-65062189D01*
X-166613455Y-64898217D01*
X-166514852Y-64750647D01*
X-166389353Y-64625148D01*
X-166241783Y-64526545D01*
X-166077811Y-64458625D01*
X-165928511Y-64428928D01*
X-165903741Y-64424001D01*
X-165726257Y-64424001D01*
X-165701487Y-64428928D01*
G37*
G36*
X-168241487Y-64428928D02*
G01*
X-168092187Y-64458625D01*
X-167928215Y-64526545D01*
X-167780645Y-64625148D01*
X-167655146Y-64750647D01*
X-167556543Y-64898217D01*
X-167488623Y-65062189D01*
X-167453999Y-65236260D01*
X-167453999Y-65413742D01*
X-167488623Y-65587813D01*
X-167556543Y-65751785D01*
X-167655146Y-65899355D01*
X-167780645Y-66024854D01*
X-167928215Y-66123457D01*
X-168092187Y-66191377D01*
X-168241487Y-66221074D01*
X-168266257Y-66226001D01*
X-168443741Y-66226001D01*
X-168468511Y-66221074D01*
X-168617811Y-66191377D01*
X-168781783Y-66123457D01*
X-168929353Y-66024854D01*
X-169054852Y-65899355D01*
X-169153455Y-65751785D01*
X-169221375Y-65587813D01*
X-169255999Y-65413742D01*
X-169255999Y-65236260D01*
X-169221375Y-65062189D01*
X-169153455Y-64898217D01*
X-169054852Y-64750647D01*
X-168929353Y-64625148D01*
X-168781783Y-64526545D01*
X-168617811Y-64458625D01*
X-168468511Y-64428928D01*
X-168443741Y-64424001D01*
X-168266257Y-64424001D01*
X-168241487Y-64428928D01*
G37*
G36*
X-62291487Y-64428928D02*
G01*
X-62142187Y-64458625D01*
X-61978215Y-64526545D01*
X-61830645Y-64625148D01*
X-61705146Y-64750647D01*
X-61606543Y-64898217D01*
X-61538623Y-65062189D01*
X-61503999Y-65236260D01*
X-61503999Y-65413742D01*
X-61538623Y-65587813D01*
X-61606543Y-65751785D01*
X-61705146Y-65899355D01*
X-61830645Y-66024854D01*
X-61978215Y-66123457D01*
X-62142187Y-66191377D01*
X-62291487Y-66221074D01*
X-62316257Y-66226001D01*
X-62493741Y-66226001D01*
X-62518511Y-66221074D01*
X-62667811Y-66191377D01*
X-62831783Y-66123457D01*
X-62979353Y-66024854D01*
X-63104852Y-65899355D01*
X-63203455Y-65751785D01*
X-63271375Y-65587813D01*
X-63305999Y-65413742D01*
X-63305999Y-65236260D01*
X-63271375Y-65062189D01*
X-63203455Y-64898217D01*
X-63104852Y-64750647D01*
X-62979353Y-64625148D01*
X-62831783Y-64526545D01*
X-62667811Y-64458625D01*
X-62518511Y-64428928D01*
X-62493741Y-64424001D01*
X-62316257Y-64424001D01*
X-62291487Y-64428928D01*
G37*
G36*
X-164913999Y-63686001D02*
G01*
X-166715999Y-63686001D01*
X-166715999Y-61884001D01*
X-164913999Y-61884001D01*
X-164913999Y-63686001D01*
G37*
G36*
X-168241487Y-61888928D02*
G01*
X-168092187Y-61918625D01*
X-167928215Y-61986545D01*
X-167780645Y-62085148D01*
X-167655146Y-62210647D01*
X-167556543Y-62358217D01*
X-167488623Y-62522189D01*
X-167453999Y-62696260D01*
X-167453999Y-62873742D01*
X-167488623Y-63047813D01*
X-167556543Y-63211785D01*
X-167655146Y-63359355D01*
X-167780645Y-63484854D01*
X-167928215Y-63583457D01*
X-168092187Y-63651377D01*
X-168241487Y-63681074D01*
X-168266257Y-63686001D01*
X-168443741Y-63686001D01*
X-168468511Y-63681074D01*
X-168617811Y-63651377D01*
X-168781783Y-63583457D01*
X-168929353Y-63484854D01*
X-169054852Y-63359355D01*
X-169153455Y-63211785D01*
X-169221375Y-63047813D01*
X-169255999Y-62873742D01*
X-169255999Y-62696260D01*
X-169221375Y-62522189D01*
X-169153455Y-62358217D01*
X-169054852Y-62210647D01*
X-168929353Y-62085148D01*
X-168781783Y-61986545D01*
X-168617811Y-61918625D01*
X-168468511Y-61888928D01*
X-168443741Y-61884001D01*
X-168266257Y-61884001D01*
X-168241487Y-61888928D01*
G37*
G36*
X-61503999Y-63686001D02*
G01*
X-63305999Y-63686001D01*
X-63305999Y-61884001D01*
X-61503999Y-61884001D01*
X-61503999Y-63686001D01*
G37*
G36*
X99323801Y-58452329D02*
G01*
X99515070Y-58531555D01*
X99515072Y-58531556D01*
X99687210Y-58646575D01*
X99833602Y-58792967D01*
X99948622Y-58965107D01*
X100027848Y-59156376D01*
X100068237Y-59359424D01*
X100068237Y-59566456D01*
X100027848Y-59769504D01*
X99948622Y-59960773D01*
X99948621Y-59960775D01*
X99833602Y-60132913D01*
X99687210Y-60279305D01*
X99515072Y-60394324D01*
X99515071Y-60394325D01*
X99515070Y-60394325D01*
X99323801Y-60473551D01*
X99120753Y-60513940D01*
X98913721Y-60513940D01*
X98710673Y-60473551D01*
X98519404Y-60394325D01*
X98519403Y-60394325D01*
X98519402Y-60394324D01*
X98347264Y-60279305D01*
X98200872Y-60132913D01*
X98085853Y-59960775D01*
X98085852Y-59960773D01*
X98006626Y-59769504D01*
X97966237Y-59566456D01*
X97966237Y-59359424D01*
X98006626Y-59156376D01*
X98085852Y-58965107D01*
X98200872Y-58792967D01*
X98347264Y-58646575D01*
X98519402Y-58531556D01*
X98519404Y-58531555D01*
X98710673Y-58452329D01*
X98913721Y-58411940D01*
X99120753Y-58411940D01*
X99323801Y-58452329D01*
G37*
G36*
X100068237Y-55513940D02*
G01*
X97966237Y-55513940D01*
X97966237Y-53411940D01*
X100068237Y-53411940D01*
X100068237Y-55513940D01*
G37*
M02*
